<?xml version="1.0" encoding="UTF-8"?>
<svg width="31px" height="23px" viewBox="0 0 31 23" version="1.1" xmlns="http://www.w3.org/2000/svg" xmlns:xlink="http://www.w3.org/1999/xlink">
    <!-- Generator: Sketch 48.2 (47327) - http://www.bohemiancoding.com/sketch -->
    <title>logo/MOCKERY-external/green</title>
    <desc>Created with Sketch.</desc>
    <defs>
        <polygon id="path-1" points="4.01731533e-05 0.0753592407 7.75690481 0.0753592407 7.75690481 5.30769231 4.01731533e-05 5.30769231"></polygon>
        <polygon id="path-3" points="0.203635813 0.0753592407 7.96153846 0.0753592407 7.96153846 5.30769231 0.203635813 5.30769231"></polygon>
        <polygon id="path-5" points="0.166064423 0.0336153846 6.07260851 0.0336153846 6.07260851 13.2376721 0.166064423 13.2376721"></polygon>
    </defs>
    <g id="760---Full-Width-Modules" stroke="none" stroke-width="1" fill="none" fill-rule="evenodd" transform="translate(-605.000000, -3966.000000)">
        <g id="Group-50" transform="translate(0.000000, 3857.000000)">
            <g id="Group-26" transform="translate(0.000000, 73.000000)">
                <g id="Group-2" transform="translate(605.000000, 36.000000)">
                    <g id="logo/MOCKERY-external/green">
                        <g id="Page-1">
                            <g id="Group-3" transform="translate(0.000000, 17.658692)">
                                <mask id="mask-2" fill="white">
                                    <use xlink:href="#path-1"></use>
                                </mask>
                                <g id="Clip-2"></g>
                                <path d="M5.42041442,1.82374519 C5.3069625,1.26953365 4.85293365,1.12335096 4.34538558,1.07624519 C2.70530865,0.923427885 2.41360673,2.14972596 2.41360673,2.66700481 C2.41360673,3.5520625 2.67235673,4.28297596 4.28501058,4.28297596 C4.58069327,4.28297596 5.40028942,3.97888942 5.40028942,3.48173558 L7.71687596,3.48173558 C7.62443365,4.95484135 5.1459625,5.30780288 4.06651058,5.30780288 C1.82754904,5.30780288 -0.0891913462,4.89114904 0.00325096154,2.68712981 C0.0687125,1.11494712 1.55685673,0.00962019231 4.51589519,0.0783990385 C6.16548173,0.117100962 7.74872212,0.6310625 7.75690481,1.82374519 L5.42041442,1.82374519 Z" id="Fill-1" fill="#68EBCA" mask="url(#mask-2)"></path>
                            </g>
                            <g id="Group-6" transform="translate(23.000000, 17.658692)">
                                <mask id="mask-4" fill="white">
                                    <use xlink:href="#path-3"></use>
                                </mask>
                                <g id="Clip-5"></g>
                                <path d="M5.6266625,1.82374519 C5.51077788,1.26953365 5.05719135,1.12335096 4.54986442,1.07624519 C2.91045096,0.923427885 2.61985481,2.14972596 2.61985481,2.66700481 C2.61985481,3.5520625 2.87683558,4.28297596 4.48772019,4.28297596 C4.78495096,4.28297596 5.60565288,3.97888942 5.60565288,3.48173558 L7.92290288,3.48173558 C7.8289125,4.95484135 5.35110481,5.30780288 4.27098942,5.30780288 C2.03202788,5.30780288 0.114402885,4.89114904 0.206845192,2.68712981 C0.273191346,1.11494712 1.76133558,0.00962019231 4.72125865,0.0783990385 C6.36907596,0.117100962 7.95474904,0.6310625 7.96160481,1.82374519 L5.6266625,1.82374519 Z" id="Fill-4" fill="#68EBCA" mask="url(#mask-4)"></path>
                            </g>
                            <polygon id="Fill-7" fill="#68EBCA" points="8.17187788 17.8430019 11.1789067 17.8430019 13.743849 21.4396269 13.763974 21.4396269 13.763974 17.8430019 15.6924356 17.8430019 15.6924356 22.8353288 12.8114644 22.8353288 10.1180317 19.2404731 10.0987913 19.2404731 10.0987913 22.8353288 8.17187788 22.8353288"></polygon>
                            <path d="M18.4017471,21.7905096 L19.0063817,21.7905096 C20.1318337,21.7905096 20.5451702,21.6713077 20.5451702,21.2831827 C20.5451702,20.8682981 20.024574,20.7305192 19.1846317,20.7305192 L18.4017471,20.7305192 L18.4017471,21.7905096 Z M18.4017471,19.7815481 L19.0063817,19.7815481 C19.9405356,19.7815481 20.4343721,19.7092308 20.4343721,19.3213269 C20.4343721,18.9097596 20.024574,18.7686635 19.1846317,18.7686635 L18.4017471,18.7686635 L18.4017471,19.7815481 Z M16.2877375,17.8429135 L19.9405356,17.8429135 C21.6960548,17.8429135 22.7288433,18.3334327 22.7288433,19.0725288 C22.7288433,19.5110769 22.2962663,20.05025 21.3313721,20.2099231 L21.3313721,20.2249615 C22.4928721,20.2921923 22.9205837,21.0246538 22.9205837,21.4645288 C22.9205837,22.3449423 21.9158817,22.8354615 19.9507087,22.8354615 L16.2877375,22.8354615 L16.2877375,17.8429135 Z" id="Fill-9" fill="#68EBCA"></path>
                            <g id="Group-13" transform="translate(15.701923, 0.187538)">
                                <mask id="mask-6" fill="white">
                                    <use xlink:href="#path-5"></use>
                                </mask>
                                <g id="Clip-12"></g>
                                <path d="M5.83357404,1.80667212 C5.66372788,1.39532596 5.36494904,1.02732596 5.00955481,0.709970192 C4.1351125,-0.0375298077 2.71574712,-0.195654808 1.70640096,0.387306731 C0.742170192,0.901268269 0.172699038,1.87722019 0.166064423,2.93544135 L0.204545192,2.97414327 L1.46600673,2.98608558 C1.54938173,3.04314327 1.68118942,3.03650865 1.70640096,3.15725865 C1.1939875,3.55047019 0.317997115,3.89989327 0.425477885,4.71617212 L1.77672788,13.2376721 L1.80967981,13.1991913 L5.54297788,4.80021058 C6.02420865,3.96358558 6.29733365,2.73905673 5.83357404,1.80667212" id="Fill-11" fill="#68EBCA" mask="url(#mask-6)"></path>
                            </g>
                            <path d="M13.5102442,13.3747875 L15.0313404,3.6170375 C15.1397058,2.90823942 14.9623404,2.26645096 14.6575904,1.70383558 C14.3282923,1.15780673 13.7968596,0.714393269 13.2373404,0.473999038 C12.1842058,0.0288163462 10.8606,0.250633654 10.0558212,1.06868173 C9.25546538,1.85488365 8.92705192,3.00222981 9.28067692,4.09915288 L13.0988981,12.6188837 L13.4901192,13.4050856 C13.5044942,13.399999 13.5162154,13.3867298 13.5102442,13.3747875" id="Fill-14" fill="#68EBCA"></path>
                            <path d="M27.0585048,5.81083942 C27.5715817,6.68594519 27.4585721,8.00955096 26.8864471,8.8225125 C26.5328221,9.39375288 25.948976,9.67749327 25.4535913,10.0521279 L17.5475625,15.4796856 L17.5292067,15.4796856 L17.6181106,15.2191663 L21.8085337,5.76019519 C22.4368317,4.6451375 23.6352644,4.08075288 24.9026971,4.25192596 C25.7709471,4.40982981 26.6394183,4.97421442 27.0585048,5.81083942" id="Fill-16" fill="#68EBCA"></path>
                            <path d="M4.59734615,9.41885385 L13.3902019,15.479575 L13.4589808,15.479575 L9.09849038,5.76030577 C8.36182692,4.45350769 6.80313462,3.91588269 5.42136538,4.42320962 C4.57722115,4.74078654 3.86753846,5.53870962 3.63997115,6.39346923 C3.335,7.53595 3.70366346,8.66295 4.59734615,9.41885385" id="Fill-18" fill="#68EBCA"></path>
                            <path d="M28.9920971,15.6509029 C29.6192894,14.864701 29.789799,13.5948356 29.3523567,12.6693067 C29.0668471,12.0359221 28.458674,11.4027587 27.8129048,11.1490952 C26.9753952,10.749249 25.8103567,10.838374 25.0411837,11.3322106 L17.1882317,16.7980279 L26.564049,16.7913933 C27.5391163,16.8150567 28.3688856,16.4034894 28.9920971,15.6509029" id="Fill-20" fill="#68EBCA"></path>
                            <path d="M13.7564327,16.7981385 L5.90348077,11.3321 C5.13408654,10.8384846 3.96904808,10.7491385 3.13175962,11.1489846 C2.48576923,11.4028692 1.87781731,12.0360327 1.59142308,12.6691962 C1.15486538,13.5949462 1.32780769,14.8648115 1.95256731,15.6510135 C2.57577885,16.4036 3.40554808,16.8149462 4.38061538,16.7915038 L13.7564327,16.7981385 Z" id="Fill-22" fill="#68EBCA"></path>
                        </g>
                    </g>
                </g>
            </g>
        </g>
    </g>
</svg>