<svg xmlns="http://www.w3.org/2000/svg" width="264" height="40" viewBox="0 0 264 40">
  <g fill="none" fill-rule="evenodd">
    <g transform="translate(0 8)">
      <path fill="#FFFFFF" d="M20.3522609,2.76189474 C20.9136522,1.83715789 21.8475652,0.869263158 22.851913,0.459263158 C24.5809565,-0.336 26.8995652,0.00505263158 28.3103478,1.26084211 C29.6741739,2.51031579 30.3670435,4.22031579 30.0373043,6.13189474 C30.3753913,6.06926316 30.711913,5.85189474 31.0672174,5.73031579 C33.1886087,5.12768421 35.427913,5.78136842 36.7865217,7.614 C37.8054783,8.92294737 38.0715652,10.9555789 37.460087,12.5345263 C37.1569565,13.3271579 36.6367826,14.044 35.9632174,14.6534737 L36.0336522,14.7245263 C38.0042609,14.8197895 39.9425217,16.3650526 40.5388696,18.2571579 C41.1884348,20.1676842 40.6171304,22.2108421 39.231913,23.6045263 C38.0986957,24.7324211 36.6466957,25.1245263 35.0282609,25.0897895 L5.67521739,25.0897895 C3.26165217,25.1429474 1.40165217,24.0650526 0.398347826,21.904 C-0.387913043,20.0450526 0.000260869565,17.6729474 1.47052174,16.2592632 C2.39713043,15.2829474 3.55486957,14.8808421 4.80965217,14.6808421 C3.39156522,13.3550526 2.7086087,11.5382105 3.10669565,9.59452632 C3.39156522,8.014 4.72304348,6.41821053 6.25226087,5.86978947 C7.60356522,5.32873684 9.4286087,5.424 10.6672174,6.15610526 L10.7094783,6.10505263 C10.3364348,3.95768421 11.2776522,2.02084211 13.0442609,0.834526316 C14.6193913,-0.238631579 17.132087,-0.212315789 18.6733043,0.930842105 C19.3661739,1.35873684 19.935913,2.09189474 20.3522609,2.76189474"/>
      <path fill="#2E2E2E" d="M28.6654435 3.56573684C28.4311826 2.99731579 28.0221391 2.49257895 27.5369217 2.05731579 26.3442261 1.02626316 24.4059652.808368421 23.0317043 1.61152632 21.718487 2.31889474 20.938487 3.66205263 20.9301391 5.11678947L20.9833565 5.17152632 22.7045739 5.18836842C22.8167478 5.26678947 22.9977913 5.25731579 23.0317043 5.42363158 22.3325739 5.96678947 21.1377913 6.44521053 21.2838783 7.56889474L23.1292696 19.2967895 23.1725739 19.2441579 28.2657913 7.68363158C28.9237043 6.531 29.2941391 4.84942105 28.6654435 3.56573684M17.715287 19.2241579L19.7897217 5.79836842C19.9358087 4.821 19.6958087 3.94047368 19.2805043 3.16310526 18.8292 2.41468421 18.1039826 1.80257895 17.3422435 1.471 15.9048522.859421053 14.099113 1.16521053 13.0008522 2.291 11.9088522 3.37521053 11.4612 4.95257895 11.9438087 6.46310526L17.1538957 18.1862632 17.6860696 19.2688947C17.7069391 19.261 17.7210261 19.2441579 17.715287 19.2241579M36.1975304 8.81710526C36.8977043 10.0213158 36.7417043 11.8444737 35.9632696 12.9602632 35.4806609 13.7465789 34.6829217 14.1381579 34.0093565 14.6534211L23.2224 22.1213158 23.1968348 22.1213158 23.3173565 21.7660526 29.0345739 8.74763158C29.8928348 7.21184211 31.5253565 6.43552632 33.2575304 6.67131579 34.440313 6.88921053 35.6257043 7.66657895 36.1975304 8.81710526M5.55453913 13.7816316L17.550887 22.1216316 17.6453217 22.1216316 11.6954087 8.74794737C10.6884522 6.95005263 8.56445217 6.20742105 6.67836522 6.90742105 5.52688696 7.34426316 4.55853913 8.44215789 4.24862609 9.62110526 3.83123478 11.1911053 4.33575652 12.7421579 5.55453913 13.7816316M38.8347652 22.3599474C39.6904174 21.2773158 39.9241565 19.531 39.3283304 18.2573158 38.9370261 17.3867895 38.1090261 16.511 37.2283304 16.1641579 36.083113 15.6141579 34.4949391 15.7357368 33.4467652 16.4162632L22.7307652 23.9357368 35.5227652 23.9288947C36.8542435 23.9625789 37.9864174 23.3946842 38.8347652 22.3599474M18.049513 23.9358421L7.33455652 16.4163684C6.28586087 15.7358421 4.69768696 15.6137368 3.55455652 16.1637368 2.67229565 16.5111053 1.84429565 17.3868947 1.45351304 18.2574211.858730435 19.5311053 1.09246957 21.2774211 1.94707826 22.3600526 2.79438261 23.3947895 3.9276 23.9626842 5.25751304 23.929L18.049513 23.9358421zM65.4526435 9.678C64.9726435 7.32694737 63.0594261 6.70010526 60.9218609 6.50484211 53.9968174 5.85431579 52.7780348 11.0706316 52.7780348 13.2695789 52.7780348 17.0348421 53.8663826 20.1427368 60.6568174 20.1427368 61.9116 20.1427368 65.3681217 18.8448421 65.3681217 16.7285263L75.1319478 16.7285263C74.7338609 23.0001053 64.2938609 24.4932632 59.7369913 24.4932632 50.2992522 24.4932632 42.2149043 22.7232632 42.6124696 13.3558947 42.893687 6.66852632 49.1618609 1.96747368 61.6340348 2.25484211 68.5825565 2.42589474 75.2707304 4.61273684 75.3009913 9.678L65.4526435 9.678zM163.287391 9.678C162.803217 7.32694737 160.888957 6.70010526 158.743565 6.50484211 151.826348 5.85431579 150.607565 11.0706316 150.607565 13.2695789 150.607565 17.0348421 151.68913 20.1427368 158.483739 20.1427368 159.744783 20.1427368 163.198174 18.8448421 163.198174 16.7285263L172.960435 16.7285263C172.575391 23.0001053 162.123913 24.4932632 157.563913 24.4932632 148.129826 24.4932632 140.043391 22.7232632 140.437304 13.3558947 140.719565 6.66852632 146.996609 1.96747368 159.462522 2.25484211 166.417826 2.42589474 173.098174 4.61273684 173.129478 9.678L163.287391 9.678z"/>
      <polygon fill="#2E2E2E" points="77.041 2.712 89.718 2.712 100.54 18.001 100.625 18.001 100.625 2.712 108.754 2.712 108.754 23.945 96.611 23.945 85.255 8.648 85.172 8.648 85.172 23.945 77.041 23.945"/>
      <path fill="#2E2E2E" d="M120.183026,19.4945263 L122.73433,19.4945263 C127.477461,19.4945263 129.20807,18.9866316 129.20807,17.344 C129.20807,15.5724211 127.014157,14.9913684 123.47207,14.9913684 L120.183026,14.9913684 L120.183026,19.4945263 Z M120.183026,10.9497895 L122.73433,10.9497895 C126.659374,10.9497895 128.750504,10.6434737 128.750504,8.99715789 C128.750504,7.23926316 127.014157,6.64768421 123.47207,6.64768421 L120.183026,6.64768421 L120.183026,10.9497895 Z M111.265461,2.71136842 L126.659374,2.71136842 C134.070678,2.71136842 138.427722,4.79084211 138.427722,7.94136842 C138.427722,9.79715789 136.600591,12.0992632 132.536765,12.7755789 L132.536765,12.8355789 C137.419722,13.1276842 139.220243,16.2424211 139.220243,18.1082105 C139.220243,21.8576842 134.990504,23.9450526 126.713635,23.9450526 L111.265461,23.9450526 L111.265461,2.71136842 Z"/>
    </g>
    <path fill="#3CB878" d="M253.835374,0.000157894737 L191.08007,0.000157894737 C185.691548,0.000157894737 181.282852,4.49647368 181.282852,9.99226316 L181.282852,29.9754211 L181.282852,39.9675263 L191.08007,39.9675263 L253.835374,39.9675263 C259.222852,39.9675263 263.631026,35.4701579 263.631026,29.9754211 L263.631026,9.99226316 C263.631026,4.49647368 259.222852,0.000157894737 253.835374,0.000157894737"/>
    <path fill="#FFFFFF" d="M201.5412 20.5403684C204.267287 20.5403684 205.85807 18.9040526 205.85807 16.4935263L205.85807 16.4635263C205.85807 13.8682632 204.267287 12.4482632 201.5412 12.4482632L198.448852 12.4482632 198.448852 20.5403684 201.5412 20.5403684zM194.897896 9.17405263L201.756678 9.17405263C206.441374 9.17405263 209.472157 11.8914211 209.472157 16.3714211L209.472157 16.433C209.472157 21.2193158 205.980678 23.7219474 201.5412 23.7835263L198.448852 23.7835263 198.448852 30.7940526 194.897896 30.7940526 194.897896 9.17405263zM220.098887 19.9538947C222.854713 19.9538947 224.386017 18.4712632 224.386017 16.2154737L224.386017 16.1538947C224.386017 13.7144211 222.823409 12.4481053 220.160452 12.4481053L216.270887 12.4481053 216.270887 19.9538947 220.098887 19.9538947zM212.71993 9.17442105L220.46567 9.17442105C222.915757 9.17442105 224.906191 9.91494737 226.192278 11.2117895 227.32393 12.3549474 227.967235 13.9917895 227.967235 15.9686316L227.967235 16.0923158C227.967235 19.4286316 226.131235 21.4986316 223.527757 22.4244211L228.580278 30.7944211 224.477322 30.7944211 219.914713 23.1349474C219.85367 23.1654737 219.761322 23.1654737 219.701322 23.1654737L216.270887 23.1654737 216.270887 30.7944211 212.71993 30.7944211 212.71993 9.17442105zM246.340957 20.1075789L246.340957 19.8917895C246.340957 15.2581053 243.891913 12.1386316 240.493304 12.1386316 237.125478 12.1386316 234.706174 15.1965263 234.706174 19.8602105L234.706174 20.0770526C234.706174 24.7096842 237.187043 27.8291579 240.554348 27.8291579 243.923217 27.8291579 246.340957 24.7712632 246.340957 20.1075789M231.032609 20.1691579L231.032609 19.8602105C231.032609 13.436 234.951391 8.83389474 240.554348 8.83389474 246.127043 8.83389474 250.016087 13.4054737 250.016087 19.7981053L250.016087 20.1075789C250.016087 26.5317895 246.097304 31.1338947 240.493304 31.1338947 234.921652 31.1338947 231.032609 26.5638947 231.032609 20.1691579"/>
  </g>
</svg>
