<?xml version="1.0" encoding="utf-8"?>
<!-- Generator: Adobe Illustrator 22.0.1, SVG Export Plug-In . SVG Version: 6.00 Build 0)  -->
<svg version="1.1" id="Layer_1" xmlns="http://www.w3.org/2000/svg" xmlns:xlink="http://www.w3.org/1999/xlink" x="0px" y="0px"
	 viewBox="0 0 43 13" style="enable-background:new 0 0 43 13;" xml:space="preserve">
<style type="text/css">
	.st0{fill:#FF4B54;}
</style>
<g transform="translate(1 1)">
	<path class="st0" d="M19.4,9.6V7.7h-3.2V1.2h-2v8.3H19.4z M23.7,9.6V1.2h-2v8.3H23.7z M31,9.6l3-8.3h-2.3l-2,6l-1.9-6h-2.3l3,8.3
		H31z M41.6,9.6V7.7h-3.8V6.3h3.7V4.4h-3.7V3.1h3.8V1.2h-5.8v8.3H41.6z"/>
	<g transform="translate(0 .208)">
		<ellipse class="st0" cx="5" cy="5.2" rx="2.5" ry="2.6"/>
		<g>
			<path class="st0" d="M5,11.1c-3.1,0-5.7-2.7-5.7-5.9c0-3.3,2.6-5.9,5.7-5.9s5.7,2.7,5.7,5.9C10.7,8.5,8.1,11.1,5,11.1z M5,0.8
				c-2.3,0-4.2,2-4.2,4.4c0,2.4,1.9,4.4,4.2,4.4s4.2-2,4.2-4.4C9.2,2.7,7.3,0.8,5,0.8z"/>
		</g>
	</g>
</g>
</svg>
