<?xml version="1.0" encoding="utf-8"?>
<!-- Generator: Adobe Illustrator 22.0.1, SVG Export Plug-In . SVG Version: 6.00 Build 0)  -->
<svg version="1.1" id="Layer_1" xmlns="http://www.w3.org/2000/svg" xmlns:xlink="http://www.w3.org/1999/xlink" x="0px" y="0px"
	 viewBox="0 0 66 17" style="enable-background:new 0 0 66 17;" xml:space="preserve">
<style type="text/css">
	.st0{fill:#FF5053;}
</style>
<g transform="translate(1 1)">
	<path class="st0" d="M30,14h-8.8V0.7h3.4V11H30V14z M36.2,14h-3.4V0.7h3.4V14z M47.5,14h-4.3l-5-13.3h3.9l3.3,9.6l3.3-9.6h3.9
		L47.5,14z M64.3,14h-9.8V0.7h9.8v3H58v2.1h6.2v3H58V11h6.3V14z"/>
	<ellipse class="st0" cx="7.3" cy="7.3" rx="3.7" ry="3.7"/>
	<g>
		<path class="st0" d="M7.3,15.2c-4.4,0-7.9-3.5-7.9-7.9C-0.6,3,3-0.6,7.3-0.6s7.9,3.5,7.9,7.9C15.2,11.7,11.7,15.2,7.3,15.2z
			 M7.3,0.6c-3.7,0-6.8,3-6.8,6.7c0,3.7,3,6.7,6.8,6.7s6.8-3,6.8-6.7C14.1,3.6,11.1,0.6,7.3,0.6z"/>
	</g>
</g>
</svg>
