<svg xmlns="http://www.w3.org/2000/svg" width="138" height="19" viewBox="0 0 138 19" xmlns:xlink="http://www.w3.org/1999/xlink">
  <defs>
    <polygon id="a" points=".166 .192 6.598 .192 6.598 14.584 .166 14.584"/>
    <polygon id="c" points="0 .016 0 6.447 13.512 6.447 13.512 .016"/>
    <polygon id="e" points=".172 17.857 26.261 17.857 26.261 .245 .172 .245 .172 17.857"/>
    <polygon id="g" points=".259 17.857 26.35 17.857 26.35 .245 .259 .245 .259 17.857"/>
  </defs>
  <g fill="none" fill-rule="evenodd">
    <g transform="translate(15.646 .083)">
      <mask id="b" fill="white">
        <use xlink:href="#a"/>
      </mask>
      <path fill="#645FA9" d="M6.33809888,2.12480769 C6.15309699,1.67563187 5.82783402,1.27535714 5.44053778,0.930027473 C4.48835446,0.114093407 2.94273778,-0.0584340659 1.84315681,0.57728022 C0.793257363,1.13717033 0.172924615,2.20090659 0.166062527,3.35502747 L0.207784022,3.39678571 L1.58157402,3.4107967 C1.67215358,3.47288462 1.81543398,3.46519231 1.84315681,3.59733516 C1.28513182,4.02618132 0.331576088,4.40557692 0.448506066,5.29623626 L1.9200122,14.5838736 L1.95569505,14.5426648 L6.02189387,5.38771978 C6.54533393,4.47508242 6.84287407,3.14101648 6.33809888,2.12480769" mask="url(#b)"/>
    </g>
    <path fill="#C8234A" d="M13.2436101,14.6120055 L14.9001181,3.97711538 C15.018146,3.20348901 14.8257331,2.50486264 14.4933335,1.8903022 C14.1345836,1.2968956 13.5556978,0.81228022 12.9466189,0.550467033 C11.7992778,0.0658516484 10.3579649,0.308159341 9.48208797,1.19991758 C8.61005384,2.05651099 8.25240182,3.30706044 8.63750219,4.50293956 L12.7953785,13.7886538 L13.2219259,14.6457967 C13.2375714,14.6397527 13.2501977,14.6257418 13.2436101,14.6120055"/>
    <path fill="#0088CF" d="M27.9981696,6.3681044 C28.557018,7.32222527 28.4337749,8.76480769 27.8106973,9.6507967 C27.4258714,10.2727747 26.7898931,10.5832143 26.2502585,10.9911813 L17.6408086,16.9060165 L17.6204968,16.9060165 L17.7173895,16.6222253 L22.2804034,6.31315934 C22.9649653,5.0964011 24.2701345,4.48129121 25.6502376,4.66865385 C26.5963823,4.84118132 27.5417035,5.45656593 27.9981696,6.3681044"/>
    <path fill="#F26F21" d="M3.53751611,10.3001099 L13.1131481,16.9061538 L13.1883566,16.9061538 L8.43924275,6.31302198 C7.63692743,4.8893956 5.93924688,4.30203297 4.43507721,4.85505495 C3.51555743,5.20093407 2.74261185,6.07126374 2.49475323,7.00368132 C2.16262818,8.24763736 2.56419756,9.47675824 3.53751611,10.3001099"/>
    <path fill="#0DB04B" d="M30.1037052,17.0931044 C30.7868947,16.2356868 30.97272,14.8527198 30.4962166,13.8436538 C30.1852268,13.153544 29.5231725,12.4628846 28.8196713,12.186511 C27.9075626,11.7510714 26.6391742,11.8477747 25.8014505,12.386511 L17.2493676,18.3433791 L27.459331,18.3359615 C28.5213077,18.3626099 29.4249075,17.9139835 30.1037052,17.0931044"/>
    <g transform="translate(0 11.896)">
      <mask id="d" fill="white">
        <use xlink:href="#c"/>
      </mask>
      <path fill="#FCB813" d="M13.5116707,6.44703297 L4.95986225,0.490164835 C4.12213855,-0.0485714286 2.85292677,-0.145274725 1.94136702,0.290164835 C1.23786576,0.566813187 0.575537037,1.2571978 0.263998246,1.94730769 C-0.211681688,2.95637363 -0.0233859956,4.33934066 0.657333125,5.19675824 C1.33585638,6.01791209 2.24000508,6.46626374 3.30115836,6.43989011 L13.5116707,6.44703297 Z" mask="url(#d)"/>
    </g>
    <g transform="translate(32.938 .907)">
      <mask id="f" fill="white">
        <use xlink:href="#e"/>
      </mask>
      <path fill="#333333" d="M18.4043943,6.13046703 C18.0212153,4.26975275 16.4950869,3.77332418 14.7899953,3.61865385 C9.2651911,3.10409341 8.29297048,7.23266484 8.29297048,8.97332418 C8.29297048,11.9532692 9.16143633,14.4134341 14.578094,14.4134341 C15.5794099,14.4134341 18.3368713,13.3862363 18.3368713,11.7112363 L26.1258901,11.7112363 C25.8083126,16.6752473 17.4799338,17.8573901 13.8443996,17.8573901 C6.31531675,17.8573901 -0.133673473,16.4560165 0.183080505,9.04173077 C0.407608022,3.74832418 5.40814873,0.0271703297 15.3579017,0.255192308 C20.9008218,0.390082418 26.2365069,2.12112637 26.2606615,6.13046703 L18.4043943,6.13046703 Z" mask="url(#f)"/>
    </g>
    <g transform="translate(110.891 .907)">
      <mask id="h" fill="white">
        <use xlink:href="#g"/>
      </mask>
      <path fill="#333333" d="M18.4987342,6.13046703 C18.1128104,4.26975275 16.5855841,3.77332418 14.8739049,3.61865385 C9.3559628,3.10409341 8.3834677,7.23266484 8.3834677,8.97332418 C8.3834677,11.9532692 9.24616939,14.4134341 14.6666699,14.4134341 C15.6729264,14.4134341 18.4273685,13.3862363 18.4273685,11.7112363 L26.2155638,11.7112363 C25.9084168,16.6752473 17.5707055,17.8573901 13.9329754,17.8573901 C6.4069119,17.8573901 -0.0439997077,16.4560165 0.270009435,9.04173077 C0.495085919,3.74832418 5.50276319,0.0271703297 15.4475755,0.255192308 C20.9965342,0.390082418 26.3253572,2.12112637 26.3503352,6.13046703 L18.4987342,6.13046703 Z" mask="url(#h)"/>
    </g>
    <polygon fill="#333333" points="60.587 1.524 70.701 1.524 79.333 13.625 79.401 13.625 79.401 1.524 85.886 1.524 85.886 18.33 76.199 18.33 67.14 6.223 67.074 6.223 67.074 18.33 60.587 18.33"/>
    <path fill="#333333" d="M95.0035211,14.8075824 L97.0388163,14.8075824 C100.822846,14.8075824 102.203224,14.4056593 102.203224,13.1053846 C102.203224,11.7031868 100.453117,11.2435714 97.627309,11.2435714 L95.0035211,11.2435714 L95.0035211,14.8075824 Z M95.0035211,8.0443956 L97.0388163,8.0443956 C100.16985,8.0443956 101.838435,7.80208791 101.838435,6.49879121 C101.838435,5.10758242 100.453117,4.63917582 97.627309,4.63917582 L95.0035211,4.63917582 L95.0035211,8.0443956 Z M87.8894573,1.52379121 L100.16985,1.52379121 C106.082499,1.52379121 109.55801,3.16967033 109.55801,5.66307692 C109.55801,7.13230769 108.100502,8.95428571 104.858852,9.49 L104.858852,9.53697802 C108.754322,9.7682967 110.190694,12.233956 110.190694,13.7106044 C110.190694,16.6781868 106.816194,18.3303846 100.213218,18.3303846 L87.8894573,18.3303846 L87.8894573,1.52379121 Z"/>
  </g>
</svg>
