<?xml version="1.0" encoding="UTF-8"?>
<svg width="137px" height="20px" viewBox="0 0 137 20" version="1.1" xmlns="http://www.w3.org/2000/svg" xmlns:xlink="http://www.w3.org/1999/xlink">
    <!-- Generator: Sketch 46.2 (44496) - http://www.bohemiancoding.com/sketch -->
    <title>LOGO/Horizontal/White</title>
    <desc>Created with Sketch.</desc>
    <defs></defs>
    <g id="Symbols" stroke="none" stroke-width="1" fill="none" fill-rule="evenodd">
        <g id="nav/760/TopLoad" transform="translate(-312.000000, -13.000000)">
            <g id="Group">
                <g id="Group-4">
                    <g id="logo/Horizontal/White" transform="translate(312.000000, 13.000000)">
                        <g id="Group-17">
                            <path d="M16.1050898,2.41539726 C16.5492438,1.69019178 17.2882218,0.931013699 18.0828218,0.60909589 C19.4514518,-0.0144657534 21.2861558,0.252931507 22.4024318,1.23786301 C23.4817178,2.21813699 24.0299918,3.5589589 23.7691438,5.05841096 C24.0365678,5.00964384 24.3028958,4.83923288 24.5837458,4.74334247 C26.2628178,4.27073973 28.0345018,4.78389041 29.1096778,6.22087671 C29.9157858,7.248 30.1267658,8.84224658 29.6426078,10.0808767 C29.4031318,10.7022466 28.9913098,11.2644384 28.4583798,11.7422466 L28.5140018,11.798137 C30.0733358,11.8732055 31.6071878,13.0847123 32.0790158,14.5693699 C32.5927658,16.067726 32.1409398,17.6701918 31.0446658,18.7630685 C30.1478638,19.648 28.9989818,19.9556712 27.7183058,19.928 L4.4907778,19.928 C2.5807238,19.9699178 1.1090698,19.1244384 0.3155658,17.4293699 C-0.3072362,15.9712877 0.0001918,14.1107397 1.1635958,13.0019726 C1.8970938,12.2362192 2.8128018,11.9208767 3.8060518,11.7641644 C2.6840218,10.7238904 2.1434198,9.2989589 2.4585198,7.77457534 C2.6840218,6.53457534 3.7372778,5.28306849 4.9472618,4.85265753 C6.0169578,4.42854795 7.4609378,4.50279452 8.4407618,5.07786301 L8.4741898,5.0370411 C8.1790918,3.35320548 8.9240978,1.83375342 10.3223198,0.903068493 C11.5684718,0.0614246575 13.5568898,0.0819726027 14.7764638,0.978684932 C15.3247378,1.31457534 15.7754678,1.88964384 16.1050898,2.41539726" id="Fill-1" fill="#FFFFFF"></path>
                            <path d="M21.790398,1.86273973 C20.846742,1.05369863 19.313164,0.882465753 18.22511,1.51287671 C17.186376,2.06794521 16.569328,3.12109589 16.562478,4.26219178 L16.6044,4.30520548 L17.966454,4.31863014 C18.05523,4.38027397 18.198532,4.37260274 18.22511,4.50273973 C17.672178,4.92876712 16.726878,5.30410959 16.842232,6.1860274 L18.302652,15.3843836 L18.336902,15.3435616 L22.367168,6.27561644 C22.887768,5.37123288 23.180948,4.05260274 22.683364,3.04575342 C22.49814,2.59972603 22.174272,2.20383562 21.790398,1.86273973 Z" id="Fill-4" fill="#645FA9"></path>
                            <path d="M14.018251,15.3276986 L15.660059,4.79673973 C15.775687,4.03043836 15.585531,3.33975342 15.257005,2.73016438 C14.899709,2.14276712 14.325953,1.6630411 13.723153,1.40276712 C12.585779,0.923315068 11.157143,1.1630411 10.288015,2.04578082 C9.423545,2.89619178 9.069263,4.13345205 9.451493,5.31838356 L13.574097,14.5134521 L13.995509,15.3624932 C14.011675,15.3567397 14.023183,15.343589 14.018251,15.3276986" id="Fill-6" fill="#C8234A"></path>
                            <path d="M28.643686,7.16471233 C29.19744,8.10909589 29.074414,9.53923288 28.458462,10.4143014 C28.076506,11.0312877 27.44521,11.338137 26.91228,11.7422466 L18.376084,17.5997808 L18.356082,17.5997808 L18.451708,17.3208767 L22.975448,7.11046575 C23.654694,5.90553425 24.946604,5.29649315 26.317152,5.48142466 C27.253136,5.65238356 28.191038,6.26252055 28.643686,7.16471233" id="Fill-8" fill="#0088CF"></path>
                            <path d="M4.3953436,11.0586575 L13.8883476,17.5997534 L13.9628756,17.5997534 L9.2544596,7.11043836 C8.4582156,5.69975342 6.7772256,5.11783562 5.2844736,5.66687671 C4.3734236,6.00934247 3.6075936,6.87071233 3.3620896,7.79509589 C3.0313716,9.02687671 3.4305896,10.2433151 4.3953436,11.0586575" id="Fill-10" fill="#F26F21"></path>
                            <path d="M30.7305248,17.7870411 C31.4075788,16.938 31.5928028,15.568137 31.1209748,14.5695068 C30.8116288,13.8862192 30.1564948,13.1996438 29.4594388,12.927589 C28.5530468,12.4958082 27.2962088,12.5911507 26.4670848,13.1248493 L17.9873328,19.0232055 L28.1099888,19.018 C29.1632448,19.0443014 30.0592248,18.5988219 30.7305248,17.7870411" id="Fill-12" fill="#0DB04B"></path>
                            <path d="M14.2828802,19.0231233 L5.8039502,13.1250411 C4.9740042,12.5910685 3.7171662,12.495726 2.8129662,12.9275068 C2.1148142,13.1995616 1.4596802,13.886137 1.1500602,14.5694247 C0.6793282,15.5683288 0.8645522,16.9381918 1.5407842,17.7869589 C2.2112622,18.5987397 3.1080642,19.0442192 4.1604982,19.0179178 L14.2828802,19.0231233 Z" id="Fill-14" fill="#FCB813"></path>
                            <path d="M51.7343515,8.23203957 C51.3543135,6.38820395 49.8404635,5.89642313 48.1493355,5.7427245 C42.6693355,5.23313546 41.7045815,9.32382039 41.7045815,11.0490259 C41.7045815,14.0021766 42.5660375,16.4402587 47.9389035,16.4402587 C48.9321535,16.4402587 51.6674955,15.4221766 51.6674955,13.7627245 L59.3937475,13.7627245 C59.0786475,18.6813546 50.8175475,19.8525875 47.2114335,19.8525875 C39.7430155,19.8525875 33.3462115,18.4640944 33.6602155,11.1166971 C33.8829775,5.87149162 38.8431995,2.18382039 48.7126795,2.40984779 C54.2107635,2.54327244 59.5036215,4.25888888 59.5274595,8.23203957 L51.7343515,8.23203957 Z" id="Fill-16" fill="#FFFFFF"></path>
                            <path d="M129.211714,7.8400274 C128.828936,5.99619178 127.31399,5.50441096 125.616012,5.35071233 C120.142588,4.84112329 119.178108,8.93180822 119.178108,10.6570137 C119.178108,13.6101644 120.03381,16.0482466 125.410512,16.0482466 C126.408694,16.0482466 129.141022,15.0301644 129.141022,13.3707123 L136.866452,13.3707123 C136.561764,18.2893425 128.291074,19.4605753 124.683042,19.4605753 C117.217364,19.4605753 110.818642,18.0720822 111.129906,10.7246849 C111.35349,5.47947945 116.320562,1.79180822 126.18511,2.01783562 C131.689222,2.15126027 136.97523,3.86687671 136.99989,7.8400274 L129.211714,7.8400274 Z" id="Fill-18" fill="#FFFFFF"></path>
                            <polygon id="Fill-20" fill="#FFFFFF" points="60.963904 2.37580822 70.995592 2.37580822 79.55864 14.367863 79.626318 2.37580822 86.058468 2.37580822 86.058468 19.0303288 76.449836 19.0303288 67.464006 7.03252055 67.397972 19.0303288 60.963904 19.0303288"></polygon>
                            <path d="M95.1025778,15.5396164 L97.1216838,15.5396164 C100.874936,15.5396164 102.244388,15.1412603 102.244388,13.8527671 C102.244388,12.4631781 100.508324,12.0078356 97.7053038,12.0078356 L95.1025778,12.0078356 L95.1025778,15.5396164 Z M95.1025778,8.83742466 L97.1216838,8.83742466 C100.227474,8.83742466 101.882434,8.59715068 101.882434,7.30564384 C101.882434,5.92728767 100.508324,5.46317808 97.7053038,5.46317808 L95.1025778,5.46317808 L95.1025778,8.83742466 Z M88.0459818,2.37578082 L100.227474,2.37578082 C106.09217,2.37578082 109.539912,4.00673973 109.539912,6.47769863 C109.539912,7.93358904 108.094014,9.73934247 104.87835,10.2697534 L104.87835,10.3166027 C108.742572,10.5456438 110.167372,12.9889315 110.167372,14.4524932 C110.167372,17.3933151 106.819914,19.0303014 100.270218,19.0303014 L88.0459818,19.0303014 L88.0459818,2.37578082 Z" id="Fill-22" fill="#FFFFFF"></path>
                        </g>
                    </g>
                </g>
            </g>
        </g>
    </g>
</svg>