<svg xmlns="http://www.w3.org/2000/svg" width="540" height="408" viewBox="0 0 540 408" xmlns:xlink="http://www.w3.org/1999/xlink">
  <defs>
    <polygon id="a" points=".001 92.604 135.289 92.604 135.289 1.316 .001 1.316"/>
    <polygon id="c" points="3.55 92.604 138.857 92.604 138.857 1.316 3.55 1.316 3.55 92.604"/>
  </defs>
  <g fill="none" fill-rule="evenodd">
    <g transform="translate(0 314.95)">
      <mask id="b" fill="white">
        <use xlink:href="#a"/>
      </mask>
      <path fill="#FFFFFF" d="M94.5378,31.8190425 C92.5629429,22.1650991 84.6365143,19.6146368 75.7882286,18.7927783 C47.1798,16.1265613 42.0960857,37.5218915 42.0960857,46.5469009 C42.0960857,61.9924387 46.6089429,74.7408915 74.7352286,74.7408915 C79.8922286,74.7408915 94.1868,69.435467 94.1868,60.7615802 L134.586514,60.7615802 C132.974229,86.4629858 89.7472286,92.6057028 70.9243714,92.6057028 C31.8708,92.6057028 -1.5552,85.3517406 0.0570857143,46.8980236 C1.1988,19.4680142 27.1535143,0.183278302 78.7620857,1.36783491 C107.532514,2.05850472 135.141943,11.0256368 135.288514,31.8190425 L94.5378,31.8190425 Z" mask="url(#b)"/>
    </g>
    <g transform="translate(401.143 314.95)">
      <mask id="d" fill="white">
        <use xlink:href="#c"/>
      </mask>
      <path fill="#FFFFFF" d="M98.1330429,31.8190425 C96.1119,22.1650991 88.2009,19.6146368 79.3564714,18.7927783 C50.7596143,16.1265613 45.6913286,37.5218915 45.6913286,46.5469009 C45.6913286,61.9924387 50.1733286,74.7408915 78.2726143,74.7408915 C83.4566143,74.7408915 97.7666143,69.435467 97.7666143,60.7615802 L138.181757,60.7615802 C136.542471,86.4629858 93.3270429,92.6057028 74.4926143,92.6057028 C35.4390429,92.6057028 1.99761429,85.3517406 3.60604286,46.8980236 C4.76318571,19.4680142 30.7217571,0.183278302 82.3419,1.36783491 C111.081471,2.05850472 138.741043,11.0256368 138.856757,31.8190425 L98.1330429,31.8190425 Z" mask="url(#d)"/>
    </g>
    <polygon fill="#FFFFFF" points="142.526 318.18 194.968 318.18 239.703 380.915 240.058 380.915 240.058 318.18 273.688 318.18 273.688 405.282 223.445 405.282 176.469 342.562 176.129 342.562 176.129 405.282 142.526 405.282"/>
    <path fill="#FFFFFF" d="M320.947071 387.037472L331.4925 387.037472C351.1215 387.037472 358.3305 384.957745 358.3305 378.201528 358.3305 370.947566 349.246929 368.55916 334.5975 368.55916L320.947071 368.55916 320.947071 387.037472zM320.947071 351.986943L331.4925 351.986943C347.781214 351.986943 356.394214 350.740651 356.394214 343.972858 356.394214 336.776774 349.246929 334.330491 334.5975 334.330491L320.947071 334.330491 320.947071 351.986943zM284.076643 318.178849L347.781214 318.178849C378.399214 318.178849 396.415929 326.721547 396.415929 339.632057 396.415929 347.283443 388.871357 356.690443 372.038786 359.472415L372.038786 359.738651C392.300357 360.911632 399.756214 373.687094 399.756214 381.350057 399.756214 396.726142 382.237071 405.284274 347.954786 405.284274L284.076643 405.284274 284.076643 318.178849zM269.384014 32.6706113C276.1803 21.6083189 287.431586 10.0135547 299.558443 5.10555472 320.417871-4.39404906 348.397586-.323341509 365.419157 14.7131962 381.896871 29.6494132 390.263014 50.1071302 386.278586 72.9879792 390.378729 72.2510075 394.421014 69.6426679 398.698586 68.1803 424.306157 60.9803566 451.317729 68.8053755 467.722157 90.7254604 480.026443 106.406366 483.251014 130.730291 475.868443 149.633036 472.192586 159.128781 465.9363 167.686913 457.793871 175.002611L458.642443 175.836045C482.429443 176.978158 505.811443 195.468045 513.020443 218.125102 520.838871 240.9828 513.953871 265.426338 497.2563 282.129743 483.575014 295.611309 466.025014 300.303234 446.511729 299.894234L92.2524429 299.894234C63.1310143 300.538602 40.6631571 287.643526 28.5594429 261.76463 19.0708714 239.532008 23.7573 211.121942 41.5117286 194.210177 52.6858714 182.518951 66.6603 177.711272 81.8265857 175.307432 64.6854429 159.449036 56.4543 137.721875 61.2564429 114.435885 64.6854429 95.5331396 80.7697286 76.4258943 99.2261571 69.8548849 115.514871 63.3764792 137.546871 64.5263094 152.489443 73.2889415L153.002443 72.671583C148.505014 46.9778943 159.872014 23.788366 181.182729 9.60455472 200.183014-3.24807736 230.534871-2.93939811 249.1263 10.7466679 257.488586 15.8707434 264.373586 24.637234 269.384014 32.6706113"/>
    <path fill="#645FA9" d="M369.696343,42.282883 C366.884486,35.4880811 361.962771,29.4456849 356.115343,24.2212887 C341.716629,11.8895528 318.338486,9.28121321 301.725771,18.8927132 C285.8652,27.3505245 276.473057,43.4249962 276.357343,60.8615151 L277.001486,61.498166 L297.7722,61.710383 C299.1492,62.6479962 301.316914,62.5322415 301.725771,64.5270811 C293.2902,71.0016283 278.876057,76.7507792 280.646486,90.2014774 L302.898343,230.550213 L303.426771,229.936713 L364.890343,91.5751 C372.828343,77.7848547 377.3142,57.6396755 369.696343,42.282883"/>
    <path fill="#C8234A" d="M237.5514,229.717165 L262.584257,69.011033 C264.373971,57.3159481 261.457971,46.7668349 256.435971,37.4755896 C251.012829,28.5084575 242.253257,21.181184 233.053971,17.2262311 C215.7084,9.91053302 193.915543,13.5606651 180.670114,27.0422311 C167.4864,39.987467 162.082543,58.8863538 167.910686,76.9518066 L230.770543,217.288967 L237.215829,230.230344 C237.451114,230.141599 237.640114,229.937099 237.5514,229.717165"/>
    <path fill="#0088CF" d="M460.619614,105.145411 C469.070614,119.549157 467.196043,141.368921 457.792329,154.734732 C451.960329,164.141732 442.352186,168.829798 434.2059,174.999525 L304.027329,264.373742 L303.718757,264.373742 L305.184471,260.094675 L374.177186,104.308119 C384.522043,85.9301283 404.251329,76.6273075 425.126186,79.4594396 C439.420757,82.0677792 453.719186,91.3744585 460.619614,105.145411"/>
    <path fill="#F26F21" d="M90.7878857,164.552661 L235.577314,264.371812 L236.7036,264.371812 L164.9106,104.310048 C152.779886,82.7951047 127.114457,73.9205764 104.353457,82.2819255 C90.4677429,87.5024632 78.7767429,100.659916 75.0276,114.758841 C70.0017429,133.545831 76.0806,152.124463 90.7878857,164.552661"/>
    <path fill="#0DB04B" d="M492.450686,267.217063 C502.776257,254.26411 505.603543,233.366525 498.3984,218.125488 C493.696543,207.692129 483.675686,197.227903 473.041543,193.06845 C459.259971,186.489724 440.066829,187.940516 427.411543,196.08579 L298.093114,286.108233 L452.475257,286.000195 C468.544114,286.413054 482.209971,279.625969 492.450686,267.217063"/>
    <path fill="#FCB813" d="M241.609886,286.106304 L112.291457,196.087719 C99.6361714,187.942445 80.4468857,186.491653 66.6614571,193.070379 C56.0273143,197.229832 46.0103143,207.694058 41.3046,218.127417 C34.0994571,233.364596 36.9383143,254.262181 47.2523143,267.215134 C57.4930286,279.62404 71.1588857,286.411125 87.2277429,286.002125 L241.609886,286.106304 Z"/>
  </g>
</svg>
