<?xml version="1.0" encoding="utf-8"?>
<!-- Generator: Adobe Illustrator 20.1.0, SVG Export Plug-In . SVG Version: 6.00 Build 0)  -->
<svg version="1.1" id="Layer_1" xmlns="http://www.w3.org/2000/svg" xmlns:xlink="http://www.w3.org/1999/xlink" x="0px" y="0px"
	 viewBox="0 0 223 34.2" style="enable-background:new 0 0 223 34.2;" xml:space="preserve">
<style type="text/css">
	.st0{fill:#FFFFFF;}
	.st1{fill:#645FA9;}
	.st2{fill:#C8234A;}
	.st3{fill:#0088CF;}
	.st4{fill:#F26F21;}
	.st5{fill:#0DB04B;}
	.st6{fill:#FCB813;}
</style>
<g id="Layer_3">
	<g>
		<g>
			<g>
				<path class="st0" d="M26.8,4.8c0.7-1.2,1.8-2.3,3.2-3c2.2-1,5.1-0.5,7,1c1.7,1.5,2.7,3.7,2.2,6.1c0.5,0,0.8-0.3,1.3-0.5
					c2.7-0.8,5.5,0,7.3,2.3c1.3,1.7,1.7,4.2,0.8,6.1c-0.3,1-1,1.8-1.8,2.7l0.2,0.2c2.5,0.2,5,2,5.8,4.5s0.2,5-1.7,6.8
					c-1.5,1.5-3.3,2-5.3,1.8H8.2c-3.2,0-5.5-1.3-6.6-4c-1-2.3-0.5-5.3,1.3-7.1c1.2-1.2,2.7-1.7,4.3-2c-1.8-1.7-2.7-4-2.2-6.5
					c0.2-1.8,1.8-4,3.8-4.7c1.7-0.7,4-0.5,5.6,0.3l0,0c-0.5-2.7,0.7-5.1,3-6.6c2-1.3,5.1-1.3,7.1,0.2C25.5,3,26.3,4,26.8,4.8z"/>
				<g>
					<path class="st1" d="M37.4,5.8C37.1,5.1,36.6,4.5,36,4c-1.5-1.3-4-1.5-5.8-0.5c-1.7,0.8-2.7,2.7-2.7,4.5l0,0h2.2
						c0.2,0.2,0.3,0.2,0.5,0.3C29.3,9,27.6,9.6,28,11l2.3,14.8l0,0l6.5-14.6C37.8,9.5,38.3,7.5,37.4,5.8z"/>
					<path class="st2" d="M23.5,25.6l2.7-16.9c0.2-1.2-0.2-2.3-0.7-3.3C25,4.3,24,3.6,23,3.1c-1.8-0.8-4.2-0.3-5.5,1s-2,3.3-1.3,5.3
						l6.6,14.8L23.5,25.6L23.5,25.6z"/>
					<path class="st3" d="M47.1,12.4c0.8,1.5,0.7,3.8-0.3,5.1c-0.7,1-1.7,1.5-2.5,2.2l-13.8,9.5l0,0l0.2-0.5l7.3-16.4
						c1.2-2,3.2-3,5.3-2.7C44.8,10,46.3,11,47.1,12.4z"/>
					<path class="st4" d="M8.1,18.6l15.3,10.5h0.2l-7.6-16.8c-1.3-2.2-4-3.2-6.5-2.3c-1.5,0.7-2.7,2-3,3.5
						C5.7,15.4,6.4,17.4,8.1,18.6z"/>
					<path class="st5" d="M50.4,29.6c1.2-1.3,1.3-3.7,0.7-5.1c-0.5-1.2-1.5-2.2-2.7-2.7c-1.5-0.7-3.5-0.5-4.8,0.3L30,31.5h16.3
						C47.9,31.5,49.2,30.9,50.4,29.6z"/>
					<path class="st6" d="M23.8,31.5l-13.6-9.6c-1.3-0.8-3.3-1-4.8-0.3c-1.2,0.5-2.2,1.5-2.7,2.7c-0.8,1.7-0.5,3.8,0.7,5.1
						c1,1.3,2.5,2,4.2,2L23.8,31.5z"/>
				</g>
			</g>
		</g>
		<g>
			<g>
				<path class="st0" d="M84.8,13.4c-0.7-3-3-3.8-5.8-4c-8.8-0.8-10.3,5.8-10.3,8.6c0,4.8,1.3,8.6,10,8.6c1.7,0,6-1.7,6-4.3h12.5
					c-0.5,8-13.8,9.8-19.6,9.8c-12,0-22.3-2.2-21.8-14.1c0.3-8.5,8.3-14.4,24.2-14c8.8,0.2,17.3,3,17.3,9.3H84.8z"/>
				<path class="st0" d="M209.4,13.4c-0.7-3-3-3.8-5.8-4c-8.8-0.8-10.3,5.8-10.3,8.5c0,4.8,1.3,8.6,10,8.6c1.7,0,6-1.7,6-4.3h12.5
					c-0.5,8-13.8,9.8-19.6,9.8c-12,0-22.3-2.2-21.8-14.1c0.3-8.5,8.3-14.4,24.2-14c8.8,0.2,17.4,3,17.4,9.3h-12.6V13.4z"/>
				<path class="st0" d="M99.6,4.6h16.1l13.8,19.3h0.2V4.6H140v26.7h-15.4l-14.4-19.3h-0.2v19.3H99.6C99.6,31.4,99.6,4.6,99.6,4.6z"
					/>
				<path class="st0" d="M143.1,4.6h19.6c9.5,0,14.9,2.7,14.9,6.6c0,2.3-2.3,5.3-7.5,6.1l0,0c6.1,0.3,8.5,4.3,8.5,6.6
					c0,4.8-5.3,7.3-15.9,7.3h-19.6V4.6z M154.6,15.1h3.3c5,0,7.6-0.3,7.6-2.5s-2.2-3-6.6-3h-4.2v5.5H154.6z M154.6,25.9h3.3
					c6,0,8.3-0.7,8.3-2.7c0-2.2-2.8-3-7.3-3h-4.2v5.6H154.6z"/>
			</g>
		</g>
	</g>
</g>
</svg>
