<?xml version="1.0" encoding="UTF-8"?>
<svg width="264px" height="40px" viewBox="0 0 264 40" version="1.1" xmlns="http://www.w3.org/2000/svg" xmlns:xlink="http://www.w3.org/1999/xlink">
    <!-- Generator: Sketch 47.1 (45422) - http://www.bohemiancoding.com/sketch -->
    <title>logo/mockerypro/gate/desktop</title>
    <desc>Created with Sketch.</desc>
    <defs></defs>
    <g id="Symbols" stroke="none" stroke-width="1" fill="none" fill-rule="evenodd">
        <g id="logo/mockerypro/gate/desktop">
            <g id="Page-1">
                <path d="M20.3522609,10.7618947 C20.9136522,9.83715789 21.8475652,8.86926316 22.851913,8.45926316 C24.5809565,7.664 26.8995652,8.00505263 28.3103478,9.26084211 C29.6741739,10.5103158 30.3670435,12.2203158 30.0373043,14.1318947 C30.3753913,14.0692632 30.711913,13.8518947 31.0672174,13.7303158 C33.1886087,13.1276842 35.427913,13.7813684 36.7865217,15.614 C37.8054783,16.9229474 38.0715652,18.9555789 37.460087,20.5345263 C37.1569565,21.3271579 36.6367826,22.044 35.9632174,22.6534737 L36.0336522,22.7245263 C38.0042609,22.8197895 39.9425217,24.3650526 40.5388696,26.2571579 C41.1884348,28.1676842 40.6171304,30.2108421 39.231913,31.6045263 C38.0986957,32.7324211 36.6466957,33.1245263 35.0282609,33.0897895 L5.67521739,33.0897895 C3.26165217,33.1429474 1.40165217,32.0650526 0.398347826,29.904 C-0.387913043,28.0450526 0.000260869565,25.6729474 1.47052174,24.2592632 C2.39713043,23.2829474 3.55486957,22.8808421 4.80965217,22.6808421 C3.39156522,21.3550526 2.7086087,19.5382105 3.10669565,17.5945263 C3.39156522,16.014 4.72304348,14.4182105 6.25226087,13.8697895 C7.60356522,13.3287368 9.4286087,13.424 10.6672174,14.1561053 L10.7094783,14.1050526 C10.3364348,11.9576842 11.2776522,10.0208421 13.0442609,8.83452632 C14.6193913,7.76136842 17.132087,7.78768421 18.6733043,8.93084211 C19.3661739,9.35873684 19.935913,10.0918947 20.3522609,10.7618947" id="Fill-1" fill="#FFFFFF"></path>
                <path d="M28.6654435,11.5657368 C28.4311826,10.9973158 28.0221391,10.4925789 27.5369217,10.0573158 C26.3442261,9.02626316 24.4059652,8.80836842 23.0317043,9.61152632 C21.718487,10.3188947 20.938487,11.6620526 20.9301391,13.1167895 L20.9833565,13.1715263 L22.7045739,13.1883684 C22.8167478,13.2667895 22.9977913,13.2573158 23.0317043,13.4236316 C22.3325739,13.9667895 21.1377913,14.4452105 21.2838783,15.5688947 L23.1292696,27.2967895 L23.1725739,27.2441579 L28.2657913,15.6836316 C28.9237043,14.531 29.2941391,12.8494211 28.6654435,11.5657368" id="Fill-3" fill="#645FA9"></path>
                <path d="M17.715287,27.2241579 L19.7897217,13.7983684 C19.9358087,12.821 19.6958087,11.9404737 19.2805043,11.1631053 C18.8292,10.4146842 18.1039826,9.80257895 17.3422435,9.471 C15.9048522,8.85942105 14.099113,9.16521053 13.0008522,10.291 C11.9088522,11.3752105 11.4612,12.9525789 11.9438087,14.4631053 L17.1538957,26.1862632 L17.6860696,27.2688947 C17.7069391,27.261 17.7210261,27.2441579 17.715287,27.2241579" id="Fill-5" fill="#C8234A"></path>
                <path d="M36.1975304,16.8171053 C36.8977043,18.0213158 36.7417043,19.8444737 35.9632696,20.9602632 C35.4806609,21.7465789 34.6829217,22.1381579 34.0093565,22.6534211 L23.2224,30.1213158 L23.1968348,30.1213158 L23.3173565,29.7660526 L29.0345739,16.7476316 C29.8928348,15.2118421 31.5253565,14.4355263 33.2575304,14.6713158 C34.440313,14.8892105 35.6257043,15.6665789 36.1975304,16.8171053" id="Fill-7" fill="#0088CF"></path>
                <path d="M5.55453913,21.7816316 L17.550887,30.1216316 L17.6453217,30.1216316 L11.6954087,16.7479474 C10.6884522,14.9500526 8.56445217,14.2074211 6.67836522,14.9074211 C5.52688696,15.3442632 4.55853913,16.4421579 4.24862609,17.6211053 C3.83123478,19.1911053 4.33575652,20.7421579 5.55453913,21.7816316" id="Fill-9" fill="#F26F21"></path>
                <path d="M38.8347652,30.3599474 C39.6904174,29.2773158 39.9241565,27.531 39.3283304,26.2573158 C38.9370261,25.3867895 38.1090261,24.511 37.2283304,24.1641579 C36.083113,23.6141579 34.4949391,23.7357368 33.4467652,24.4162632 L22.7307652,31.9357368 L35.5227652,31.9288947 C36.8542435,31.9625789 37.9864174,31.3946842 38.8347652,30.3599474" id="Fill-11" fill="#0DB04B"></path>
                <path d="M18.049513,31.9358421 L7.33455652,24.4163684 C6.28586087,23.7358421 4.69768696,23.6137368 3.55455652,24.1637368 C2.67229565,24.5111053 1.84429565,25.3868947 1.45351304,26.2574211 C0.858730435,27.5311053 1.09246957,29.2774211 1.94707826,30.3600526 C2.79438261,31.3947895 3.9276,31.9626842 5.25751304,31.929 L18.049513,31.9358421 Z" id="Fill-13" fill="#FCB813"></path>
                <path d="M65.4526435,17.678 C64.9726435,15.3269474 63.0594261,14.7001053 60.9218609,14.5048421 C53.9968174,13.8543158 52.7780348,19.0706316 52.7780348,21.2695789 C52.7780348,25.0348421 53.8663826,28.1427368 60.6568174,28.1427368 C61.9116,28.1427368 65.3681217,26.8448421 65.3681217,24.7285263 L75.1319478,24.7285263 C74.7338609,31.0001053 64.2938609,32.4932632 59.7369913,32.4932632 C50.2992522,32.4932632 42.2149043,30.7232632 42.6124696,21.3558947 C42.893687,14.6685263 49.1618609,9.96747368 61.6340348,10.2548421 C68.5825565,10.4258947 75.2707304,12.6127368 75.3009913,17.678 L65.4526435,17.678 Z" id="Fill-15" fill="#FFFFFF"></path>
                <path d="M163.287391,17.678 C162.803217,15.3269474 160.888957,14.7001053 158.743565,14.5048421 C151.826348,13.8543158 150.607565,19.0706316 150.607565,21.2695789 C150.607565,25.0348421 151.68913,28.1427368 158.483739,28.1427368 C159.744783,28.1427368 163.198174,26.8448421 163.198174,24.7285263 L172.960435,24.7285263 C172.575391,31.0001053 162.123913,32.4932632 157.563913,32.4932632 C148.129826,32.4932632 140.043391,30.7232632 140.437304,21.3558947 C140.719565,14.6685263 146.996609,9.96747368 159.462522,10.2548421 C166.417826,10.4258947 173.098174,12.6127368 173.129478,17.678 L163.287391,17.678 Z" id="Fill-17" fill="#FFFFFF"></path>
                <polygon id="Fill-19" fill="#FFFFFF" points="77.0412 10.7115263 89.7184174 10.7115263 100.539809 26.001 100.625374 26.001 100.625374 10.7115263 108.753548 10.7115263 108.753548 31.9452105 96.611113 31.9452105 85.2554609 16.6483684 85.1719826 16.6483684 85.1719826 31.9452105 77.0412 31.9452105"></polygon>
                <path d="M120.183026,27.4945263 L122.73433,27.4945263 C127.477461,27.4945263 129.20807,26.9866316 129.20807,25.344 C129.20807,23.5724211 127.014157,22.9913684 123.47207,22.9913684 L120.183026,22.9913684 L120.183026,27.4945263 Z M120.183026,18.9497895 L122.73433,18.9497895 C126.659374,18.9497895 128.750504,18.6434737 128.750504,16.9971579 C128.750504,15.2392632 127.014157,14.6476842 123.47207,14.6476842 L120.183026,14.6476842 L120.183026,18.9497895 Z M111.265461,10.7113684 L126.659374,10.7113684 C134.070678,10.7113684 138.427722,12.7908421 138.427722,15.9413684 C138.427722,17.7971579 136.600591,20.0992632 132.536765,20.7755789 L132.536765,20.8355789 C137.419722,21.1276842 139.220243,24.2424211 139.220243,26.1082105 C139.220243,29.8576842 134.990504,31.9450526 126.713635,31.9450526 L111.265461,31.9450526 L111.265461,10.7113684 Z" id="Fill-21" fill="#FFFFFF"></path>
                <path d="M253.835374,0.000157894737 L191.08007,0.000157894737 C185.691548,0.000157894737 181.282852,4.49647368 181.282852,9.99226316 L181.282852,29.9754211 L181.282852,39.9675263 L191.08007,39.9675263 L253.835374,39.9675263 C259.222852,39.9675263 263.631026,35.4701579 263.631026,29.9754211 L263.631026,9.99226316 C263.631026,4.49647368 259.222852,0.000157894737 253.835374,0.000157894737" id="Fill-23" fill="#3CB878"></path>
                <path d="M201.5412,20.5403684 C204.267287,20.5403684 205.85807,18.9040526 205.85807,16.4935263 L205.85807,16.4635263 C205.85807,13.8682632 204.267287,12.4482632 201.5412,12.4482632 L198.448852,12.4482632 L198.448852,20.5403684 L201.5412,20.5403684 Z M194.897896,9.17405263 L201.756678,9.17405263 C206.441374,9.17405263 209.472157,11.8914211 209.472157,16.3714211 L209.472157,16.433 C209.472157,21.2193158 205.980678,23.7219474 201.5412,23.7835263 L198.448852,23.7835263 L198.448852,30.7940526 L194.897896,30.7940526 L194.897896,9.17405263 Z" id="Fill-25" fill="#FFFFFF"></path>
                <path d="M220.098887,19.9538947 C222.854713,19.9538947 224.386017,18.4712632 224.386017,16.2154737 L224.386017,16.1538947 C224.386017,13.7144211 222.823409,12.4481053 220.160452,12.4481053 L216.270887,12.4481053 L216.270887,19.9538947 L220.098887,19.9538947 Z M212.71993,9.17442105 L220.46567,9.17442105 C222.915757,9.17442105 224.906191,9.91494737 226.192278,11.2117895 C227.32393,12.3549474 227.967235,13.9917895 227.967235,15.9686316 L227.967235,16.0923158 C227.967235,19.4286316 226.131235,21.4986316 223.527757,22.4244211 L228.580278,30.7944211 L224.477322,30.7944211 L219.914713,23.1349474 C219.85367,23.1654737 219.761322,23.1654737 219.701322,23.1654737 L216.270887,23.1654737 L216.270887,30.7944211 L212.71993,30.7944211 L212.71993,9.17442105 Z" id="Fill-27" fill="#FFFFFF"></path>
                <path d="M246.340957,20.1075789 L246.340957,19.8917895 C246.340957,15.2581053 243.891913,12.1386316 240.493304,12.1386316 C237.125478,12.1386316 234.706174,15.1965263 234.706174,19.8602105 L234.706174,20.0770526 C234.706174,24.7096842 237.187043,27.8291579 240.554348,27.8291579 C243.923217,27.8291579 246.340957,24.7712632 246.340957,20.1075789 M231.032609,20.1691579 L231.032609,19.8602105 C231.032609,13.436 234.951391,8.83389474 240.554348,8.83389474 C246.127043,8.83389474 250.016087,13.4054737 250.016087,19.7981053 L250.016087,20.1075789 C250.016087,26.5317895 246.097304,31.1338947 240.493304,31.1338947 C234.921652,31.1338947 231.032609,26.5638947 231.032609,20.1691579" id="Fill-29" fill="#FFFFFF"></path>
            </g>
        </g>
    </g>
</svg>