<?xml version="1.0" encoding="UTF-8"?>
<svg width="540px" height="401px" viewBox="0 0 540 401" version="1.1" xmlns="http://www.w3.org/2000/svg" xmlns:xlink="http://www.w3.org/1999/xlink">
    <!-- Generator: Sketch 47.1 (45422) - http://www.bohemiancoding.com/sketch -->
    <title>logo/vertical/white</title>
    <desc>Created with Sketch.</desc>
    <defs>
        <polygon id="path-1" points="0.00108027329 92.6037736 135.288514 92.6037736 135.288514 1.31611972 0.00108027329 1.31611972"></polygon>
        <polygon id="path-3" points="3.55032425 92.6037736 138.856757 92.6037736 138.856757 1.31611972 3.55032425 1.31611972 3.55032425 92.6037736"></polygon>
    </defs>
    <g id="Symbols" stroke="none" stroke-width="1" fill="none" fill-rule="evenodd">
        <g id="logo/vertical/white">
            <g id="Page-1" transform="translate(0.000000, -4.000000)">
                <g id="Group-3" transform="translate(0.000000, 314.949292)">
                    <mask id="mask-2" fill="white">
                        <use xlink:href="#path-1"></use>
                    </mask>
                    <g id="Clip-2"></g>
                    <path d="M94.5378,31.8190425 C92.5629429,22.1650991 84.6365143,19.6146368 75.7882286,18.7927783 C47.1798,16.1265613 42.0960857,37.5218915 42.0960857,46.5469009 C42.0960857,61.9924387 46.6089429,74.7408915 74.7352286,74.7408915 C79.8922286,74.7408915 94.1868,69.435467 94.1868,60.7615802 L134.586514,60.7615802 C132.974229,86.4629858 89.7472286,92.6057028 70.9243714,92.6057028 C31.8708,92.6057028 -1.5552,85.3517406 0.0570857143,46.8980236 C1.1988,19.4680142 27.1535143,0.183278302 78.7620857,1.36783491 C107.532514,2.05850472 135.141943,11.0256368 135.288514,31.8190425 L94.5378,31.8190425 Z" id="Fill-1" fill="#FFFFFF" mask="url(#mask-2)"></path>
                </g>
                <g id="Group-6" transform="translate(401.142857, 314.949292)">
                    <mask id="mask-4" fill="white">
                        <use xlink:href="#path-3"></use>
                    </mask>
                    <g id="Clip-5"></g>
                    <path d="M98.1330429,31.8190425 C96.1119,22.1650991 88.2009,19.6146368 79.3564714,18.7927783 C50.7596143,16.1265613 45.6913286,37.5218915 45.6913286,46.5469009 C45.6913286,61.9924387 50.1733286,74.7408915 78.2726143,74.7408915 C83.4566143,74.7408915 97.7666143,69.435467 97.7666143,60.7615802 L138.181757,60.7615802 C136.542471,86.4629858 93.3270429,92.6057028 74.4926143,92.6057028 C35.4390429,92.6057028 1.99761429,85.3517406 3.60604286,46.8980236 C4.76318571,19.4680142 30.7217571,0.183278302 82.3419,1.36783491 C111.081471,2.05850472 138.741043,11.0256368 138.856757,31.8190425 L98.1330429,31.8190425 Z" id="Fill-4" fill="#FFFFFF" mask="url(#mask-4)"></path>
                </g>
                <polygon id="Fill-7" fill="#FFFFFF" points="142.526057 318.180007 194.967771 318.180007 239.702914 380.915205 240.057771 380.915205 240.057771 318.180007 273.6882 318.180007 273.6882 405.281573 223.445057 405.281573 176.468914 342.561808 176.129486 342.561808 176.129486 405.281573 142.526057 405.281573"></polygon>
                <path d="M320.947071,387.037472 L331.4925,387.037472 C351.1215,387.037472 358.3305,384.957745 358.3305,378.201528 C358.3305,370.947566 349.246929,368.55916 334.5975,368.55916 L320.947071,368.55916 L320.947071,387.037472 Z M320.947071,351.986943 L331.4925,351.986943 C347.781214,351.986943 356.394214,350.740651 356.394214,343.972858 C356.394214,336.776774 349.246929,334.330491 334.5975,334.330491 L320.947071,334.330491 L320.947071,351.986943 Z M284.076643,318.178849 L347.781214,318.178849 C378.399214,318.178849 396.415929,326.721547 396.415929,339.632057 C396.415929,347.283443 388.871357,356.690443 372.038786,359.472415 L372.038786,359.738651 C392.300357,360.911632 399.756214,373.687094 399.756214,381.350057 C399.756214,396.726142 382.237071,405.284274 347.954786,405.284274 L284.076643,405.284274 L284.076643,318.178849 Z" id="Fill-9" fill="#FFFFFF"></path>
                <path d="M269.384014,32.6706113 C276.1803,21.6083189 287.431586,10.0135547 299.558443,5.10555472 C320.417871,-4.39404906 348.397586,-0.323341509 365.419157,14.7131962 C381.896871,29.6494132 390.263014,50.1071302 386.278586,72.9879792 C390.378729,72.2510075 394.421014,69.6426679 398.698586,68.1803 C424.306157,60.9803566 451.317729,68.8053755 467.722157,90.7254604 C480.026443,106.406366 483.251014,130.730291 475.868443,149.633036 C472.192586,159.128781 465.9363,167.686913 457.793871,175.002611 L458.642443,175.836045 C482.429443,176.978158 505.811443,195.468045 513.020443,218.125102 C520.838871,240.9828 513.953871,265.426338 497.2563,282.129743 C483.575014,295.611309 466.025014,300.303234 446.511729,299.894234 L92.2524429,299.894234 C63.1310143,300.538602 40.6631571,287.643526 28.5594429,261.76463 C19.0708714,239.532008 23.7573,211.121942 41.5117286,194.210177 C52.6858714,182.518951 66.6603,177.711272 81.8265857,175.307432 C64.6854429,159.449036 56.4543,137.721875 61.2564429,114.435885 C64.6854429,95.5331396 80.7697286,76.4258943 99.2261571,69.8548849 C115.514871,63.3764792 137.546871,64.5263094 152.489443,73.2889415 L153.002443,72.671583 C148.505014,46.9778943 159.872014,23.788366 181.182729,9.60455472 C200.183014,-3.24807736 230.534871,-2.93939811 249.1263,10.7466679 C257.488586,15.8707434 264.373586,24.637234 269.384014,32.6706113" id="Fill-11" fill="#FFFFFF"></path>
                <path d="M369.696343,42.282883 C366.884486,35.4880811 361.962771,29.4456849 356.115343,24.2212887 C341.716629,11.8895528 318.338486,9.28121321 301.725771,18.8927132 C285.8652,27.3505245 276.473057,43.4249962 276.357343,60.8615151 L277.001486,61.498166 L297.7722,61.710383 C299.1492,62.6479962 301.316914,62.5322415 301.725771,64.5270811 C293.2902,71.0016283 278.876057,76.7507792 280.646486,90.2014774 L302.898343,230.550213 L303.426771,229.936713 L364.890343,91.5751 C372.828343,77.7848547 377.3142,57.6396755 369.696343,42.282883" id="Fill-13" fill="#645FA9"></path>
                <path d="M237.5514,229.717165 L262.584257,69.011033 C264.373971,57.3159481 261.457971,46.7668349 256.435971,37.4755896 C251.012829,28.5084575 242.253257,21.181184 233.053971,17.2262311 C215.7084,9.91053302 193.915543,13.5606651 180.670114,27.0422311 C167.4864,39.987467 162.082543,58.8863538 167.910686,76.9518066 L230.770543,217.288967 L237.215829,230.230344 C237.451114,230.141599 237.640114,229.937099 237.5514,229.717165" id="Fill-15" fill="#C8234A"></path>
                <path d="M460.619614,105.145411 C469.070614,119.549157 467.196043,141.368921 457.792329,154.734732 C451.960329,164.141732 442.352186,168.829798 434.2059,174.999525 L304.027329,264.373742 L303.718757,264.373742 L305.184471,260.094675 L374.177186,104.308119 C384.522043,85.9301283 404.251329,76.6273075 425.126186,79.4594396 C439.420757,82.0677792 453.719186,91.3744585 460.619614,105.145411" id="Fill-17" fill="#0088CF"></path>
                <path d="M90.7878857,164.552661 L235.577314,264.371812 L236.7036,264.371812 L164.9106,104.310048 C152.779886,82.7951047 127.114457,73.9205764 104.353457,82.2819255 C90.4677429,87.5024632 78.7767429,100.659916 75.0276,114.758841 C70.0017429,133.545831 76.0806,152.124463 90.7878857,164.552661" id="Fill-19" fill="#F26F21"></path>
                <path d="M492.450686,267.217063 C502.776257,254.26411 505.603543,233.366525 498.3984,218.125488 C493.696543,207.692129 483.675686,197.227903 473.041543,193.06845 C459.259971,186.489724 440.066829,187.940516 427.411543,196.08579 L298.093114,286.108233 L452.475257,286.000195 C468.544114,286.413054 482.209971,279.625969 492.450686,267.217063" id="Fill-21" fill="#0DB04B"></path>
                <path d="M241.609886,286.106304 L112.291457,196.087719 C99.6361714,187.942445 80.4468857,186.491653 66.6614571,193.070379 C56.0273143,197.229832 46.0103143,207.694058 41.3046,218.127417 C34.0994571,233.364596 36.9383143,254.262181 47.2523143,267.215134 C57.4930286,279.62404 71.1588857,286.411125 87.2277429,286.002125 L241.609886,286.106304 Z" id="Fill-23" fill="#FCB813"></path>
            </g>
        </g>
    </g>
</svg>