<?xml version="1.0" encoding="utf-8"?>
<!-- Generator: Adobe Illustrator 22.0.0, SVG Export Plug-In . SVG Version: 6.00 Build 0)  -->
<svg version="1.1" id="Layer_1" xmlns="http://www.w3.org/2000/svg" xmlns:xlink="http://www.w3.org/1999/xlink" x="0px" y="0px"
	 viewBox="0 0 40 40" style="enable-background:new 0 0 40 40;" xml:space="preserve">
<g>
	<path d="M9.2,19.4H2.1c-0.2,0-0.4,0.2-0.4,0.4s0.2,0.4,0.4,0.4h7.1c0.2,0,0.4-0.2,0.4-0.4S9.4,19.4,9.2,19.4z"/>
	<path d="M38.5,10.8H13.6c-0.7,0-1.3,0.6-1.3,1.3v15.3c0,0.7,0.6,1.3,1.3,1.3h24.9c0.7,0,1.3-0.6,1.3-1.3V12.2
		C39.9,11.4,39.3,10.8,38.5,10.8z M38.2,11.7L26.1,22.4L14,11.7H38.2z M13.2,27.3V12.2l8.4,7.4L13.2,27.3z M13.8,27.9l8.4-7.7
		l3.5,3.1c0.2,0.1,0.4,0.1,0.6,0l3.5-3.1l8.4,7.7H13.8z M39,27.3l-8.4-7.7l8.4-7.4V27.3z"/>
	<path d="M9.2,24.8H3.9c-0.2,0-0.4,0.2-0.4,0.4c0,0.2,0.2,0.4,0.4,0.4h5.3c0.2,0,0.4-0.2,0.4-0.4C9.6,25,9.4,24.8,9.2,24.8z"/>
	<path d="M9.2,14H0.3c-0.2,0-0.4,0.2-0.4,0.4c0,0.2,0.2,0.4,0.4,0.4h8.9c0.2,0,0.4-0.2,0.4-0.4C9.6,14.2,9.4,14,9.2,14z"/>
</g>
</svg>
