<?xml version="1.0" encoding="UTF-8"?>
<svg width="83px" height="40px" viewBox="0 0 83 40" version="1.1" xmlns="http://www.w3.org/2000/svg" xmlns:xlink="http://www.w3.org/1999/xlink">
    <!-- Generator: Sketch 47.1 (45422) - http://www.bohemiancoding.com/sketch -->
    <title>Group 2</title>
    <desc>Created with Sketch.</desc>
    <defs></defs>
    <g id="Symbols" stroke="none" stroke-width="1" fill="none" fill-rule="evenodd">
        <g id="Group-2">
            <path d="M72.5525217,0 L9.79721739,0 C4.40869565,0 0,4.49631579 0,9.99210526 L0,29.9752632 L0,39.9673684 L9.79721739,39.9673684 L72.5525217,39.9673684 C77.94,39.9673684 82.3481739,35.47 82.3481739,29.9752632 L82.3481739,9.99210526 C82.3481739,4.49631579 77.94,0 72.5525217,0" id="Fill-23" fill="#3CB878"></path>
            <path d="M20.2583478,20.5402105 C22.9844348,20.5402105 24.5752174,18.9038947 24.5752174,16.4933684 L24.5752174,16.4633684 C24.5752174,13.8681053 22.9844348,12.4481053 20.2583478,12.4481053 L17.166,12.4481053 L17.166,20.5402105 L20.2583478,20.5402105 Z M13.6150435,9.17389474 L20.4738261,9.17389474 C25.1585217,9.17389474 28.1893043,11.8912632 28.1893043,16.3712632 L28.1893043,16.4328421 C28.1893043,21.2191579 24.6978261,23.7217895 20.2583478,23.7833684 L17.166,23.7833684 L17.166,30.7938947 L13.6150435,30.7938947 L13.6150435,9.17389474 Z" id="Fill-25" fill="#FFFFFF"></path>
            <path d="M38.8160348,19.9537368 C41.5718609,19.9537368 43.1031652,18.4711053 43.1031652,16.2153158 L43.1031652,16.1537368 C43.1031652,13.7142632 41.5405565,12.4479474 38.8776,12.4479474 L34.9880348,12.4479474 L34.9880348,19.9537368 L38.8160348,19.9537368 Z M31.4370783,9.17426316 L39.1828174,9.17426316 C41.6329043,9.17426316 43.6233391,9.91478947 44.9094261,11.2116316 C46.0410783,12.3547895 46.6843826,13.9916316 46.6843826,15.9684737 L46.6843826,16.0921579 C46.6843826,19.4284737 44.8483826,21.4984737 42.2449043,22.4242632 L47.2974261,30.7942632 L43.1944696,30.7942632 L38.6318609,23.1347895 C38.5708174,23.1653158 38.4784696,23.1653158 38.4184696,23.1653158 L34.9880348,23.1653158 L34.9880348,30.7942632 L31.4370783,30.7942632 L31.4370783,9.17426316 Z" id="Fill-27" fill="#FFFFFF"></path>
            <path d="M65.0581043,20.1074211 L65.0581043,19.8916316 C65.0581043,15.2579474 62.6090609,12.1384737 59.2104522,12.1384737 C55.8426261,12.1384737 53.4233217,15.1963684 53.4233217,19.8600526 L53.4233217,20.0768947 C53.4233217,24.7095263 55.9041913,27.829 59.2714957,27.829 C62.6403652,27.829 65.0581043,24.7711053 65.0581043,20.1074211 M49.7497565,20.169 L49.7497565,19.8600526 C49.7497565,13.4358421 53.6685391,8.83373684 59.2714957,8.83373684 C64.8441913,8.83373684 68.7332348,13.4053158 68.7332348,19.7979474 L68.7332348,20.1074211 C68.7332348,26.5316316 64.8144522,31.1337368 59.2104522,31.1337368 C53.6388,31.1337368 49.7497565,26.5637368 49.7497565,20.169" id="Fill-29" fill="#FFFFFF"></path>
        </g>
    </g>
</svg>