<?xml version="1.0" encoding="UTF-8"?>
<svg width="162px" height="123px" viewBox="0 0 162 123" version="1.1" xmlns="http://www.w3.org/2000/svg" xmlns:xlink="http://www.w3.org/1999/xlink">
    <!-- Generator: Sketch 48.2 (47327) - http://www.bohemiancoding.com/sketch -->
    <title>“</title>
    <desc>Created with Sketch.</desc>
    <defs></defs>
    <g id="Timeline" stroke="none" stroke-width="1" fill="none" fill-rule="evenodd">
        <path d="M63.6681223,0 C17.6855895,24.7598253 0,51.9956332 0,79.5851528 C0,101.515284 12.3799127,122.737991 34.6637555,122.737991 C52.7030568,122.737991 63.6681223,108.58952 66.1441048,89.1353712 C49.1659389,79.9388646 42.0917031,70.7423581 42.0917031,57.30131 C42.0917031,43.5065502 48.8122271,31.1266376 73.5720524,16.2707424 L63.6681223,0 Z M152.09607,0 C106.113537,24.7598253 88.4279476,51.9956332 88.4279476,79.5851528 C88.4279476,101.515284 100.80786,122.737991 123.091703,122.737991 C141.131004,122.737991 152.09607,108.58952 154.572052,89.1353712 C137.593886,79.9388646 130.519651,70.7423581 130.519651,57.30131 C130.519651,43.5065502 137.240175,31.1266376 162,16.2707424 L152.09607,0 Z" id="“" fill="#69212D"></path>
    </g>
</svg>