<svg id="Layer_1" data-name="Layer 1" xmlns="http://www.w3.org/2000/svg" viewBox="0 0 662.52 221.93"><defs><style>.cls-1{fill:none;}.cls-2{fill:#fff;}</style></defs><title>Refinitiv_h_tm_w</title><rect class="cls-1" width="662.52" height="221.93"/><path class="cls-2" d="M607.42,166.82H589.69l-62-62h70.88v12.41H557.82ZM598.56,55.1H486.84V166.82h12.41V67.51h99.31ZM441.35,84.25v8.07h-1V84.25H437.7v-.84H444v.84Zm11.54,8.07V84.18h0l-2.5,8.14h-.76l-2.5-8.14h0v8.14h-.89V83.41h1.53l2.27,7.2h0l2.24-7.2h1.55v8.91ZM85.36,138.51h11L84.15,113.75l.41-.12c6.4-1.82,10-6.93,10-14C94.42,89.31,88,83.41,77,83.41H55.1v55.1h9.95V115.78h9.79ZM65.05,107.84V91.35h10.1c6.16,0,9.41,2.85,9.41,8.25,0,5.85-3.26,8.24-11.26,8.24Zm71.9,6.09v-8.25H117.86v-14h26.28V83.41H107.91v55.1H145v-8.25H117.86V113.93Zm50.18-8.25H168.5v-14h24.89V83.41H158.55v55.1h9.95V113.93h18.63Zm18.19-22.27v55.1h10V83.41Zm86.21,0v55.1h10V83.41Zm61.29,0H313.64v8.25h14.61v46.85h9.95V91.66h14.62Zm12.08,0v55.1h10V83.41Zm-99.5,0v39.05h-.15l-22.53-39H232.15v55.1h9.33V97.76h.15l12.3,21.45h0L265,138.51h9.72V83.41Zm156.58,0-12.91,44.66H409l-12.9-44.66h-9.76l17,55.1h11.37l17-55.1Z"/></svg>