<?xml version="1.0" encoding="utf-8"?>
<!-- Generator: Adobe Illustrator 22.0.1, SVG Export Plug-In . SVG Version: 6.00 Build 0)  -->
<svg version="1.1" id="Layer_1" xmlns="http://www.w3.org/2000/svg" xmlns:xlink="http://www.w3.org/1999/xlink" x="0px" y="0px"
	 viewBox="0 0 253 18" style="enable-background:new 0 0 253 18;" xml:space="preserve">
<style type="text/css">
	.st0{fill:#FFFFFF;}
	.st1{fill:#D1BB7E;}
</style>
<g>
	<polygon class="st0" points="26.2,2.1 20.4,2.1 20.4,3.4 22.4,4 19.5,13.5 16.2,3.7 18,3.4 18,2.1 9.9,2.1 9.9,3.4 11.5,3.7 
		12.3,5.8 9.8,13.5 6.5,3.7 8.3,3.4 8.3,2.1 0,2.1 0,3.4 1.8,3.7 6.9,17.9 9.9,17.9 13.1,8.2 16.6,17.9 19.7,17.9 24.4,3.9 
		26.2,3.4 	"/>
	<path class="st0" d="M68.4,15.2c-2,0-3.7-1.1-4.1-3.6H72c-0.1-3.2-1.5-5.9-5.1-5.9c-2.9,0-6.4,2.3-6.4,6.6c0,2.9,1.8,5.7,5.8,5.7
		c3.3,0,4.7-1.9,5.8-3.2L71.5,14C71.5,14,70.2,15.2,68.4,15.2z M66.3,7.1c1.4,0,1.8,1.4,1.8,2.9h-4C64.3,8.1,65.2,7.1,66.3,7.1z"/>
	<path class="st0" d="M36,15.1V10c0-2.9-1.1-4.3-4.5-4.3c-3.1,0-5.8,1.8-5.8,3.2c0,0.9,0.6,1.4,1.5,1.4c0.7,0,1.4-0.2,1.8-0.4V7.4
		c0.2-0.1,0.8-0.2,1.1-0.2c1.4,0,1.9,1.3,1.9,2.8v0.7l-3,0.7c-2.2,0.5-3.7,1.3-3.7,3.3c0,1.9,1.5,3.2,3.5,3.2c1.8,0,2.6-1.1,3.3-2.2
		h0.1c0.3,1.2,0.7,2.2,2.4,2.2c1.4,0,3.3-0.9,3.3-0.9v-1H37C36.3,16,36,15.9,36,15.1z M32,15.1c-0.2,0.2-0.7,0.5-1.2,0.5
		c-0.8,0-1.6-0.6-1.6-1.7c0-0.8,0.4-1.4,1.9-1.8l0.9-0.2V15.1z"/>
	<path class="st0" d="M47,5.6c-1.3,0-2.2,1.1-2.8,2.2l-0.1,0.2h0l-0.8-2.3h-0.1l-4.6,1.3V8l1.6,0.3V16l-1.6,0.3v1.3h7.9v-1.3
		L44.3,16V8.6l0.4-0.2l2.9,1.4c0,0,1.2-0.8,1.4-2.2C49.1,6.5,48.3,5.6,47,5.6z"/>
	<path class="st0" d="M58.1,5.6c-1.3,0-2.2,1.1-2.8,2.2l-0.1,0.2h0l-0.8-2.3h-0.1l-4.6,1.3V8l1.6,0.3V16l-1.6,0.3v1.3h7.9v-1.3
		L55.3,16V8.6l0.4-0.2l2.9,1.4c0,0,1.2-0.8,1.4-2.2C60.1,6.5,59.3,5.6,58.1,5.6z"/>
	<path class="st0" d="M163.5,15.6c-0.8,0-1.8-0.2-1.8-1.7V7.7h2.8V6.1h-2.9V2.5h-1.1l-2.8,3.3l-1.6,0.6v1.2h1.6l-0.1,7.3
		c0,1.9,0.7,3.1,2.9,3.1c2.3,0,4.3-1.1,4.3-1.1l-0.3-1.3C164.5,15.6,164.1,15.6,163.5,15.6z"/>
	<path class="st0" d="M86.8,9.5c0-2.7-1.4-3.9-3.9-3.9c-1.9,0-3.3,1.3-4,2h0l-0.5-2.1h-0.1l-4.8,1.3V8l1.6,0.3V16l-1.6,0.3v1.3h6.9
		v-1.3L79.1,16V8.4C79.5,8.3,80,8.1,80.6,8c1.5,0,2.2,0.9,2.2,2.6V16l-1.2,0.3v1.3h6.9v-1.3L86.8,16V9.5z"/>
	<path class="st0" d="M173.5,15.6c0,0-0.4,0-1,0c-0.8,0-1.8-0.2-1.8-1.7V7.7h2.8V6.1h-2.9V2.5h-1.1l-2.8,3.3l-1.6,0.6v1.2h1.6
		l-0.1,7.3c0,1.9,0.7,3.1,2.9,3.1c2.3,0,4.3-1.1,4.3-1.1L173.5,15.6z"/>
	<path class="st0" d="M151.4,15.2c-2,0-3.7-1.1-4.1-3.6h7.8c-0.1-3.2-1.5-5.9-5.1-5.9c-2.9,0-6.4,2.3-6.4,6.6c0,2.9,1.8,5.7,5.8,5.7
		c3.3,0,4.7-1.9,5.8-3.2l-0.6-0.7C154.6,14,153.3,15.2,151.4,15.2z M149.3,7.1c1.4,0,1.8,1.4,1.8,2.9h-4
		C147.3,8.1,148.3,7.1,149.3,7.1z"/>
	<path class="st0" d="M141.2,1.4c0.3,0,0.7,0.1,1,0.2l0.7,2.5c0,0,0.4,0.1,0.9,0.1c1.4,0,1.8-0.6,1.8-1.6c0-1.3-1.4-2.7-3.6-2.7
		c-1.8,0-3.3,0.8-4.5,1.9c-0.6-0.8-2-1.5-3.9-1.5c-3.3,0-5.8,2.2-6.4,5.4l-1.6,0.5v1.2h1.6V16l-1.6,0.3v1.3h7.1v-1.3l-1.5-0.3V7.6
		h4.4V16l-1.5,0.3v1.3h7.6v-1.3l-2.2-0.3V7.6h2.9V6.1h-2.9V4.3C139.6,2.4,140.1,1.4,141.2,1.4z M135.7,5.7v0.4h-4.4V5.9
		c0-3.2,0.8-4.1,2.1-4.1c0.6,0,1.2,0.3,1.5,0.5l1,2.1C135.7,4.8,135.7,5.3,135.7,5.7z"/>
	<path class="st0" d="M102.6,9.3L102.6,9.3c2.7-0.4,5.2-1.4,5.2-3.7c0-2.4-2.1-3.6-6.6-3.6l-7.6,0v1.3l1.9,0.3V16l-2,0.3v1.3l7.2,0
		c4.7,0,8-1.1,8-4.3C108.7,10.4,105.9,9.3,102.6,9.3z M99.8,3.3c2.5,0.1,3.8,1.3,3.8,3c0,1.4-0.9,2.4-3.8,2.6V3.3z M101.7,16.4
		c-0.9,0-1.8-0.5-1.8-1.4V9.9h1c2.2,0.4,3.4,1.7,3.4,3.8C104.3,15.5,103.1,16.4,101.7,16.4z"/>
	<path class="st0" d="M123,5.7l-5.8,0.6v1.2l1.7,0.3V15c-0.3,0.3-0.9,0.6-1.7,0.6c-1.4,0-1.8-1.1-1.8-2.5V5.7l-5.6,0.6v1.2l1.6,0.3
		v6.5c0,2.9,2.2,3.7,3.9,3.7c2.2,0,3.4-1.3,4-2.1l1.1,2.2l4.3-0.9v-1.2l-1.6-0.3V5.7z"/>
</g>
<path class="st1" d="M179,17.4l0.1-0.8l1.4-0.5l8.2-14.1l0.9-0.1l1-0.3l2.2,14.6l1.5,0.4l-0.2,0.8h-6l0.2-0.9l2-0.5l-0.6-4h-5.5
	l-2.1,3.9l2.1,0.6l-0.2,0.9H179z M188.6,4l-3.6,6.6h4.5L188.6,4L188.6,4z M195.8,17.5l0.7-2.8c1-3.9,1.5-6.6,1.5-6.6l-1.8-0.4V7.5
	c0,0,1.4-1.5,2.8-1.5c1.2,0,1.4,1.1,0.9,2.7l-1.2,4.2h0.3c1.9-4.3,3.1-6.8,5.1-6.8c0.7,0,1.2,0.4,1.2,1.2c0,1-0.8,2-1.3,2.4h-0.9
	c0.4-0.7,0.3-1.4-0.2-1.6c-1,0.5-2.2,2.6-3.3,5c-0.6,1.3-1,2.1-1.6,4.3l-1.9,0.5L195.8,17.5z M210.4,7.4c-1.6,0-3,4-3,6.5
	c0,1.7,0.7,2.3,1.5,2.3c1,0,2.6-1.1,3.6-2.6l0.4,0.3c-0.7,1.4-2.9,4-5.1,4c-1.8,0-2.9-1.5-2.9-3.4c0-2.5,1.3-5.3,3.8-7.1
	c1-0.7,2.2-1.3,3.1-1.3c1.2,0,2.3,0.6,2.3,1.3c0,0.7-0.7,1.6-0.8,1.7C212.4,8.3,211.3,7.4,210.4,7.4z M220.4,0l-2.8,11.3h0.1
	c1.5-2.4,3.5-5.3,5.8-5.3c1.1,0,1.6,0.7,1.1,2.6l-1.8,7.2l0.1,0c1-0.3,1.9-1.3,2.4-2.2l0.5,0.2c-0.6,1.8-2.7,3.9-4,3.9
	c-1.1,0-1.6-0.8-1.1-2.5l1.7-6.5c0.1-0.6,0-0.9-0.4-0.9c-1.8,0-5,5.6-5.6,8.4l-0.2,1l-2,0.5l-0.4-0.3l3.8-15.6l-1.4-0.6l0.2-0.5
	L220.4,0z M229.2,8.2l-1.8,7.1c-0.4,1.6,0.1,2.5,1.1,2.5c1.3,0,3.4-2,4-3.9l-0.5-0.2c-0.6,0.9-1.5,1.9-2.5,2.2l-0.1,0l1.7-7.3
	c0.4-1.8,0-2.5-1-2.5c-1.6,0-3,1.5-3,1.5l0,0.2L229.2,8.2z M230,1.6c0,0.7,0.6,1.4,1.4,1.4c0.8,0,1.4-0.6,1.4-1.4
	c0-0.8-0.6-1.4-1.4-1.4C230.7,0.2,230,0.8,230,1.6z M237.5,8.2c-0.1-1.6-0.7-2.2-1.7-2.2c-0.9,0-1.7,0.5-2.6,1.5l0,0.4
	c0.3-0.1,0.7-0.2,1.1-0.2c0.5,0,0.9,0.2,1.2,0.5l0.5,9.2l0.9,0.4h0.2l1.7-1.9c2.5-2.7,4.8-5.3,4.8-7.9c0-1.2-0.6-1.9-1.8-1.9
	c-0.8,0-1.7,0.5-2.7,1.5l0,0.4c0.4-0.1,0.8-0.2,1.1-0.2c1,0,1.6,0.5,1.6,1.5c0,1.6-1.6,4-3.9,6.4L237.5,8.2z M247,17.7
	c-2.1,0-2.9-1.7-2.9-3.4c0-3,1.6-5.4,3.5-6.9c1-0.8,2.3-1.4,3.4-1.4c1.4,0,2,0.6,2,1.7c0,2.2-3.1,4-6.5,4.4
	c-0.1,0.4-0.1,0.8-0.1,1.2c0,1.7,0.5,2.7,1.6,2.7c1.1,0,2.3-1,3-1.9l0.5,0.3C250.9,15.5,249.3,17.7,247,17.7z M250.2,7
	c-1.2,0-2.9,2-3.6,4.5c1.9-0.4,4.2-2.2,4.2-3.8C250.8,7.2,250.6,7,250.2,7z"/>
</svg>
