<?xml version="1.0" encoding="UTF-8"?>
<svg width="12px" height="12px" viewBox="0 0 12 12" version="1.1" xmlns="http://www.w3.org/2000/svg" xmlns:xlink="http://www.w3.org/1999/xlink">
    <!-- Generator: Sketch 52.2 (67145) - http://www.bohemiancoding.com/sketch -->
    <title>Outlink 10px</title>
    <desc>Created with Sketch.</desc>
    <g id="Homepage" stroke="none" stroke-width="1" fill="none" fill-rule="evenodd">
        <g id="1440---Homepage-Design-Variations" transform="translate(-1322.000000, -966.000000)" fill="#9B9B9B" fill-rule="nonzero" stroke="#9B9B9B">
            <g id="4-UP" transform="translate(74.000000, 882.000000)">
                <g id="Outlink-10px" transform="translate(1249.000000, 85.000000)">
                    <path d="M1.48731992,0 C1.25467196,0 1.06661612,0.189826336 1.06661612,0.423728966 C1.06661612,0.657622611 1.25467196,0.847457932 1.48731992,0.847457932 L8.49260996,0.847457932 L0.123366487,9.27666724 C-0.0411221623,9.44234415 -0.0411221623,9.71016198 0.123366487,9.8758389 C0.205405646,9.95847521 0.313108247,10 0.420801927,10 C0.528513447,10 0.636233888,9.95847521 0.718273048,9.8758389 L9.15859239,1.37496294 L9.15859239,8.57372834 C9.15859239,8.80762198 9.34666607,8.99745748 9.57931404,8.99745748 C9.81197092,8.99745748 10,8.80762198 10,8.57372834 L10,0.423728966 C10,0.189826336 9.81197092,0 9.57931404,0 L1.48731992,0 Z" id="Shape"></path>
                </g>
            </g>
        </g>
    </g>
</svg>
