<?xml version="1.0" encoding="utf-8"?>
<!-- Generator: Adobe Illustrator 22.0.1, SVG Export Plug-In . SVG Version: 6.00 Build 0)  -->
<svg version="1.1" id="Layer_1" xmlns="http://www.w3.org/2000/svg" xmlns:xlink="http://www.w3.org/1999/xlink" x="0px" y="0px"
	 viewBox="0 0 88 31" style="enable-background:new 0 0 88 31;" xml:space="preserve">
<style type="text/css">
	.st0{fill:#009FDE;}
	.st1{fill:#4F6477;}
	.st2{fill:#FFFFFF;}
</style>
<rect x="0.5" y="0.5" class="st0" width="87" height="30"/>
<path class="st1" d="M88,31H0V0h88V31z M1,30h86V1H1V30z"/>
<g>
	<path class="st2" d="M40.8,18.8c0,1.2-1.3,2.2-2.5,2.2c-0.8,0-1.4-0.5-1.4-0.8c0-0.2,0.1-0.8,0.3-0.8c0.4,0,0.8,0.9,1.7,0.9
		c0.5,0,1-0.4,1-0.9c0-0.8-1.3-1.5-1.3-2.7c0-1.3,1.4-2.8,2.6-2.8c0.6,0,0.9,0.4,0.9,0.7c0,0.3-0.2,0.6-0.6,0.6
		c-0.5,0-0.8-0.4-1.3-0.4c-0.5,0-0.8,0.4-0.8,1C39.4,16.7,40.8,17.5,40.8,18.8"/>
	<path class="st2" d="M15.8,19.1c-0.7,0.8-1.7,1.9-2.6,1.9c-0.4,0-0.5-0.2-0.5-0.5c0-0.9,1.8-3.8,1.8-4.9c0-0.3-0.1-0.5-0.5-0.5
		c-1.1,0-3.3,2.8-4.1,5.5c-0.1,0.2-0.2,0.2-0.6,0.2c-0.4,0-0.5-0.1-0.5-0.2c0-0.3,1.6-4.2,2.3-6.3c0.6-1.8,1.2-3.2,1.2-3.5
		c0-0.2-0.1-0.3-0.4-0.4c-0.1,0-0.4,0-0.5,0c0,0,0,0,0,0v-0.3c0,0,0,0,0,0h2.1c0.2,0,0.2,0,0.2,0.2c0,0.1-0.5,1.6-1.5,4.2
		c-0.7,1.8-1.1,2.5-0.9,2.5c0.2,0,1.9-2.9,3.4-2.9c0.6,0,1,0.4,1,1.2c0,1.4-1.4,4.1-1.4,4.4c0,0.1,0.1,0.2,0.2,0.2
		c0.3,0,0.9-0.6,1.2-1c0,0,0,0,0.1,0L15.8,19.1C15.8,19.1,15.8,19.1,15.8,19.1"/>
	<path class="st2" d="M8.4,19.4C8.2,19.7,7.1,21,5.7,21c-1.4,0-1.9-1.1-1.9-2c-0.1-2.7,3.1-5.1,4.9-5.1c0.9,0,1.3,0.6,1.3,1.1
		c0,0.3-0.2,0.5-0.4,0.5c-0.6,0-0.7-1.1-1.5-1.1c-1.1,0-3.2,3-3.1,4.7c0,0.9,0.7,1.3,1.2,1.3c0.6,0,1.2-0.4,1.5-0.7
		c0.2-0.1,0.4-0.4,0.5-0.4c0,0,0,0,0.1,0L8.4,19.4C8.4,19.3,8.4,19.3,8.4,19.4"/>
	<path class="st2" d="M23.6,15.9l0.1,0.2c0,0,0,0,0.1,0c0,0,0-0.1,0.1-0.1c0.2-0.3,0.8-1,1.1-1c0.2,0,0.2,0.2,0.2,0.4
		c0,1-1.6,5-1.6,5.3c0,0.1,0.1,0.2,0.2,0.2h0.6c0.1,0,0.2-0.1,0.2-0.3c0,0,0.3-0.7,0.5-1.1c1.3-2.6,1.9-3.8,2.4-4.3
		c1.1-1,0.9,0,1.5,0c0.4,0,0.6-0.4,0.6-0.8c0-0.5-0.3-0.6-0.6-0.6c-1,0-1.7,0.9-2.9,3.1c-0.1,0.2-0.2,0.3-0.2,0.3c0,0-0.1,0-0.1-0.1
		c0-0.2,0.6-2.3,0.6-2.7c0-0.4-0.2-0.5-0.5-0.5C25.2,13.9,24,15.2,23.6,15.9C23.6,15.8,23.6,15.8,23.6,15.9"/>
	<path class="st2" d="M17.8,20c-0.3,0-0.5-0.1-0.5-0.7c0-1.9,1.6-4.9,3.2-4.9c0.6,0,0.8,0.4,0.8,0.9C21.4,16.2,19.2,20,17.8,20
		 M22.8,14.1l-0.4-0.2c0,0-0.1-0.1-0.2,0c-0.2,0.1-0.2,0.4-0.5,0.4c-0.2,0-0.5-0.1-1-0.1c-3.1,0-4.7,4.2-4.7,5.5
		c0,0.9,0.5,1.3,1.1,1.3c0.7,0,1.5-0.4,2.6-2c0.3-0.4,0.3-0.5,0.4-0.5c0.1,0,0.1,0.1,0.1,0.1c0,0.1-0.5,1-0.5,1.7
		c0,0.4,0.2,0.6,0.5,0.6c0.9,0,1.9-1.3,2.3-1.9c0,0,0,0,0,0l-0.2-0.2c0,0,0,0-0.1,0C22,19.2,21.5,20,21.2,20c-0.1,0-0.2-0.1-0.2-0.3
		c0-0.6,1.9-5.1,1.9-5.5C22.9,14.2,22.8,14.1,22.8,14.1z"/>
	<path class="st2" d="M34.2,16.4c0.2-0.4,1.3-2.1,2.2-2.1c0.4,0,0.6,0.3,0.6,0.7C37,15.9,35.8,16.4,34.2,16.4 M36.5,19.3l-0.1-0.2
		c0,0,0,0-0.1,0c-0.3,0.2-1.2,1-2,1c-0.7,0-1.2-0.5-1.2-1.2c0-0.9,0.4-1.6,0.8-2.1c0.2,0,0.4,0,0.8,0c1.1,0,3.3-0.5,3.3-1.8
		c0-0.6-0.5-1.1-1.4-1.1c-1.9,0-4.8,2.7-4.8,5.2c0,1.1,0.7,1.9,1.8,1.9C34.9,21,36.2,19.8,36.5,19.3C36.5,19.3,36.5,19.3,36.5,19.3z
		"/>
	<path class="st2" d="M31.3,19.1c-0.6,0.7-1.5,1.8-2.3,1.8c-0.6,0-0.8-0.3-0.8-0.9c0-0.9,1.9-5.4,2-5.7c0.7-1.8,1.3-3.2,1.3-3.5
		c0-0.2-0.1-0.3-0.4-0.4c-0.1,0-0.4,0-0.5,0c0,0,0,0,0,0l0-0.3c0,0,0,0,0,0h2.1c0.2,0,0.2,0,0.2,0.2c0,0.1-0.6,1.5-1.6,4.2
		c-0.9,2.3-1.8,4.8-1.8,5.3c0,0.2,0.1,0.3,0.2,0.3c0.3,0,0.7-0.4,1.3-1.1c0,0,0,0,0.1,0L31.3,19.1C31.3,19.1,31.4,19.1,31.3,19.1"/>
	<path class="st2" d="M47.3,15.7c-0.2-0.6-0.5-1.3-1.4-1.3c-0.7,0-1,0.5-1,1.1c0,0.6,0.4,1,1.2,1.3l0.3,0.1c0.8,0.4,1.5,0.9,1.5,2
		c0,1.2-1,2.1-2.3,2.1c-0.4,0-0.8-0.1-1-0.2c-0.3-0.1-0.5-0.2-0.6-0.2c-0.1-0.3-0.2-1-0.3-1.6l0.3-0.1c0.2,0.5,0.8,1.7,1.8,1.7
		c0.7,0,1.1-0.5,1.1-1.2c0-0.6-0.3-1-1.1-1.4l-0.3-0.2c-0.7-0.3-1.5-0.9-1.5-1.9c0-1.1,0.8-2,2.2-2c0.3,0,0.6,0,0.9,0.1
		c0.2,0.1,0.3,0.1,0.4,0.1c0,0.4,0.1,0.8,0.2,1.4L47.3,15.7"/>
	<path class="st2" d="M54.4,15.9c-0.3-1.2-1-1.5-1.9-1.5c-1.7,0-2.4,1.4-2.4,2.9c0,1.9,0.9,3.2,2.4,3.2c1.1,0,1.6-0.6,2.2-1.7
		l0.3,0.1c-0.1,0.5-0.3,1.3-0.5,1.7c-0.3,0.1-1.2,0.3-1.9,0.3c-2.7,0-3.8-1.8-3.8-3.4c0-2.2,1.7-3.6,4-3.6c0.9,0,1.6,0.2,1.8,0.3
		c0.1,0.6,0.1,1,0.2,1.6L54.4,15.9"/>
	<path class="st2" d="M58.3,14.1v0.3c-0.8,0.1-0.8,0.1-0.8,1.3v1.4h3.1v-1.4c0-1.1-0.1-1.2-0.9-1.3v-0.3h2.9v0.3
		c-0.8,0.1-0.9,0.1-0.9,1.3v3.6c0,1.1,0.1,1.2,0.9,1.3v0.3h-3v-0.3c0.9-0.1,0.9-0.1,0.9-1.3v-1.7h-3.1v1.7c0,1.1,0.1,1.2,0.9,1.3
		v0.3h-2.9v-0.3c0.8-0.1,0.9-0.1,0.9-1.3v-3.6c0-1.1-0.1-1.2-0.9-1.3v-0.3H58.3"/>
	<path class="st2" d="M68.3,14.2l1.8,4.9h0c0.4-1.3,0.9-3.2,1-3.8c0.2-0.6,0.1-0.8-0.4-0.8c-0.1,0-0.4,0-0.4,0v-0.3h2.4v0.3
		c-0.7,0.1-0.7,0.1-1.1,1c-0.2,0.4-0.9,2.6-1.7,5.4h-0.5l-1.7-4.8h0l-1.6,4.8h-0.5L64,15.4c-0.3-0.9-0.5-0.9-1-1v-0.3h2.8v0.3
		c0,0-0.3,0-0.3,0c-0.4,0.1-0.5,0.1-0.3,0.7l1.2,4h0l1.6-4.9H68.3"/>
	<path class="st2" d="M74.9,14.1l-2.1,5.4c-0.4,0.9-0.5,1-1.1,1v0.3H74v-0.3l-0.3,0c-0.5-0.1-0.5-0.2-0.3-0.7c0.1-0.4,0.3-1,0.5-1.3
		h1.9c0.2,0.5,0.5,1.2,0.6,1.5c0.1,0.4,0.1,0.5-0.3,0.6l-0.3,0v0.3h2.7v-0.3c-0.6-0.1-0.7-0.1-1.1-1c-0.4-1-0.8-2.3-1.3-3.6
		l-0.7-1.9L74.9,14.1 M74.8,15.7L74.8,15.7l0.8,2.3H74L74.8,15.7z"/>
	<path class="st2" d="M81.1,17.4c1,0,1.8,0.5,1.8,1.5c0,1.1-0.7,1.4-1.4,1.4c-0.7,0-0.8-0.2-0.8-1.1v-1.8H81.1 M78.9,14.1v0.3
		c0.7,0.1,0.8,0.1,0.8,1.3v3.6c0,1.1-0.1,1.2-0.9,1.3v0.3h2.6c0.7,0,1.5-0.1,2-0.4c0.6-0.3,0.9-0.8,0.9-1.5c0-1-0.8-1.6-1.8-1.7v0
		c0.6-0.1,1.5-0.6,1.5-1.5c0-0.5-0.2-0.9-0.6-1.2c-0.4-0.2-0.8-0.3-1.6-0.3H78.9z M80.8,15.1c0-0.2,0-0.4,0.1-0.5
		c0.1,0,0.2-0.1,0.5-0.1c0.6,0,1.3,0.3,1.3,1.3c0,0.9-0.6,1.3-1.4,1.3h-0.4V15.1z"/>
</g>
</svg>
