<svg xmlns="http://www.w3.org/2000/svg" width="256" height="51" viewBox="0 0 256 51" xmlns:xlink="http://www.w3.org/1999/xlink">
  <defs>
    <polygon id="a" points="0 .111 11.467 .111 11.467 7.846 0 7.846"/>
    <polygon id="c" points=".301 .111 11.769 .111 11.769 7.846 .301 7.846"/>
    <polygon id="e" points=".245 .05 8.977 .05 8.977 19.569 .245 19.569"/>
  </defs>
  <g fill="none" fill-rule="evenodd">
    <g fill-rule="nonzero" transform="translate(54)">
      <path fill="#68EBCA" d="M163.1,7 C163,3.4 165.9,0.5 169.5,0.4 C169.6,0.4 169.7,0.4 169.8,0.4 C173.3,0.3 176.3,3 176.4,6.5 C176.4,6.6 176.4,6.8 176.4,6.9 C176.6,10.4 173.8,13.4 170.3,13.6 C170.1,13.6 170,13.6 169.8,13.6 C166.2,13.7 163.2,10.9 163.1,7.3 C163.1,7.3 163.1,7.1 163.1,7 Z"/>
      <path fill="#3E4855" d="M52.3,30.8 L52.3,49.6 L40.6,49.6 L40.6,33.5 C40.6,30 39.9,27.2 36.7,27.2 C34.4,27.2 32.5,29.1 32.5,33.5 L32.5,49.6 L20.9,49.6 L20.9,33.5 C20.9,30 20.1,27.2 17,27.2 C14.4,27.2 12.6,29.1 12.6,33.5 L12.6,49.6 L0.8,49.6 L0.8,17.5 L12.5,17.5 L12.5,21.2 L12.6,21.2 C14.6,18.5 17.8,16.9 21.2,16.9 C25.1,16.9 28.4,18.2 30.4,21.5 L30.5,21.5 C33.1,18.5 36.9,16.8 40.9,16.9 C47.5,16.8 52.3,20.4 52.3,30.8 Z"/>
      <polygon fill="#3E4855" points="100.9 41.4 100.9 49.5 89.2 49.5 89.2 1.4 100.9 1.4 100.9 26.2 101 26.2 108.4 17.5 121.8 17.5 111.1 29.7 122.2 49.5 109.3 49.5 103.4 38.6"/>
      <path fill="#3E4855" d="M151.9,36.4 L130.9,36.4 C131.4,39.5 134.1,41 137.5,41 C140.4,41 142.7,39.8 144.9,37.5 L150.9,44.2 C148.1,47.5 143,50.3 136.2,50.3 C126.6,50.3 119.4,43.5 119.4,33.6 C119.4,23.9 126.3,16.9 136,16.9 C145.2,16.9 152.1,23.7 152.1,33.3 C152.1,34.3 152,35.3 151.9,36.4 Z M130.9,30 L140.8,30 C140.3,27.2 138.4,25.7 136,25.7 C133.4,25.6 131.2,27.5 130.9,30 Z"/>
      <polygon fill="#3E4855" points="163.9 17.5 175.6 17.5 175.6 49.6 163.9 49.6"/>
      <path fill="#3E4855" d="M182.2 39.5L182.2 26.8 178.7 26.8 178.7 17.5 182.2 17.5 182.2 7.4 193.9 6.2 193.9 17.5 200.8 17.5 200.8 26.8 193.9 26.8 193.9 37C193.9 38.5 194.1 40.2 196 40.2 196.8 40.2 197.6 40 198.4 39.7L201.3 47.8C198.5 49.5 195.2 50.3 191.9 50.2 186.4 50.2 182.2 46.8 182.2 39.5zM71.2 16.8C68.3 16.8 65.3 17.2 62.5 18 60.9 18.4 59.3 19 57.7 19.7L57.7 29 62.5 26.9C64.6 26.1 66.8 25.6 69 25.6 71 25.6 72.2 25.9 72.9 27 73.4 27.9 73.6 28.9 73.5 30L73.5 30.1 68.7 30.2C59.1 30.2 55.4 34.1 55.4 40.2 55.4 45.9 58.6 50.2 65.7 50.2 68.6 50.1 71.4 49.1 73.6 47.2L73.8 47.2 74.2 49.6 85 49.6 85 30.6C85 19.4 79.2 16.8 71.2 16.8zM73.6 39.5C73.6 39.9 72.4 42.3 69.2 42.3 67.7 42.3 66.6 41.3 66.6 39.3 66.6 37.1 68.1 36.1 70.1 36.1L73.6 36 73.6 39.5z"/>
    </g>
    <g transform="translate(0 16)">
      <g transform="translate(0 26.104)">
        <mask id="b" fill="white">
          <use xlink:href="#a"/>
        </mask>
        <path fill="#3E4855" d="M8.01278654,2.69597115 C7.845075,1.87670192 7.17390192,1.66060577 6.42361346,1.59097115 C3.99915192,1.36506731 3.56794038,3.17785577 3.56794038,3.94252885 C3.56794038,5.250875 3.95044038,6.33135577 6.33436346,6.33135577 C6.77145962,6.33135577 7.98303654,5.88183654 7.98303654,5.14691346 L11.4075558,5.14691346 C11.2709019,7.32454808 7.607075,7.84631731 6.01136346,7.84631731 C2.70159423,7.84631731 -0.131848077,7.23039423 0.00480576923,3.97227885 C0.101575,1.64818269 2.30144038,0.0142211538 6.67567115,0.115894231 C9.11419038,0.173105769 11.4546327,0.932875 11.4667288,2.69597115 L8.01278654,2.69597115 Z" mask="url(#b)"/>
      </g>
      <g transform="translate(34 26.104)">
        <mask id="d" fill="white">
          <use xlink:href="#c"/>
        </mask>
        <path fill="#3E4855" d="M8.317675,2.69597115 C8.14636731,1.87670192 7.47584808,1.66060577 6.72588654,1.59097115 C4.30240577,1.36506731 3.87282885,3.17785577 3.87282885,3.94252885 C3.87282885,5.250875 4.25271346,6.33135577 6.63402115,6.33135577 C7.07340577,6.33135577 8.28661731,5.88183654 8.28661731,5.14691346 L11.7121173,5.14691346 C11.573175,7.32454808 7.91032885,7.84631731 6.31363654,7.84631731 C3.00386731,7.84631731 0.169117308,7.23039423 0.305771154,3.97227885 C0.403848077,1.64818269 2.60371346,0.0142211538 6.97925192,0.115894231 C9.41515577,0.173105769 11.7591942,0.932875 11.7693288,2.69597115 L8.317675,2.69597115 Z" mask="url(#d)"/>
      </g>
      <polygon fill="#3E4855" points="12.08 26.377 16.525 26.377 20.317 31.693 20.347 31.693 20.347 26.377 23.198 26.377 23.198 33.757 18.939 33.757 14.957 28.442 14.929 28.442 14.929 33.757 12.08 33.757"/>
      <path fill="#3E4855" d="M27.2025827,32.2120577 L28.0963904,32.2120577 C29.7601019,32.2120577 30.3711212,32.0358462 30.3711212,31.4620962 C30.3711212,30.8487885 29.6015442,30.6451154 28.3598904,30.6451154 L27.2025827,30.6451154 L27.2025827,32.2120577 Z M27.2025827,29.2422885 L28.0963904,29.2422885 C29.4773135,29.2422885 30.2073327,29.1353846 30.2073327,28.5619615 C30.2073327,27.9535577 29.6015442,27.7449808 28.3598904,27.7449808 L27.2025827,27.7449808 L27.2025827,29.2422885 Z M24.077525,26.3764808 L29.4773135,26.3764808 C32.0724288,26.3764808 33.5991596,27.1015962 33.5991596,28.1941731 C33.5991596,28.8424615 32.9596981,29.6395 31.5333327,29.8755385 L31.5333327,29.8977692 C33.2503327,29.9971538 33.8826019,31.0799231 33.8826019,31.7301731 C33.8826019,33.0316538 32.3973904,33.7567692 29.4923519,33.7567692 L24.077525,33.7567692 L24.077525,26.3764808 Z"/>
      <g transform="translate(23.212 .277)">
        <mask id="f" fill="white">
          <use xlink:href="#e"/>
        </mask>
        <path fill="#3E4855" d="M8.62354423,2.67073269 C8.37246731,2.06265577 7.93079423,1.51865577 7.40542885,1.04952115 C6.112775,-0.0554788462 4.01458269,-0.289228846 2.52250577,0.572540385 C1.09712115,1.33230962 0.255294231,2.77502115 0.245486538,4.33934808 L0.302371154,4.39655962 L2.16714038,4.41421346 C2.29039038,4.49855962 2.48523654,4.48875192 2.52250577,4.66725192 C1.765025,5.24852115 0.470082692,5.76505962 0.628967308,6.97173269 L2.62646731,19.5687327 L2.67517885,19.5118481 L8.19396731,7.09596346 C8.90535192,5.85921346 9.30910192,4.04904038 8.62354423,2.67073269" mask="url(#f)"/>
      </g>
      <path fill="#3E4855" d="M19.9716654 19.771425L22.2202423 5.346925C22.3804346 4.29913654 22.1182423 3.35040577 21.6677423 2.51871346 21.1809538 1.71154038 20.3953577 1.05605962 19.5682423.700694231 18.0114346.0425980769 16.0548.370501923 14.8651269 1.57979038 13.6819923 2.74200192 13.1965115 4.43807885 13.7192615 6.05961731L19.3635885 18.6540019 19.9419154 19.8162135C19.9631654 19.8086942 19.9804923 19.7890788 19.9716654 19.771425M39.9995288 8.58993654C40.7579904 9.88357115 40.5909327 11.8402058 39.7451827 13.041975 39.2224327 13.8864173 38.3593558 14.3058596 37.6270481 14.8596673L25.939875 22.8830135 25.9127404 22.8830135 26.0441635 22.4978981 32.2387019 8.51507115C33.1674904 6.866725 34.9390865 6.03241731 36.8126827 6.28545577 38.0961827 6.51887885 39.3800096 7.35318654 39.9995288 8.58993654M6.79607692 13.9235231L19.7942115 22.88285 19.8958846 22.88285 13.4499423 8.51523462C12.3609615 6.58344615 10.0568077 5.78869615 8.01419231 6.53865769 6.76632692 7.00811923 5.71723077 8.18765769 5.38082692 9.45121538 4.93 11.1401 5.47498077 12.8061 6.79607692 13.9235231M42.8578827 23.1361173C43.7850365 21.9739058 44.0370942 20.0967135 43.3904404 18.7285404 42.9683827 17.7922327 42.0693442 16.8562519 41.1147288 16.4812712 39.8766712 15.8901942 38.1544404 16.0219442 37.0174019 16.7519635L25.4086904 24.8318673 39.2685942 24.8220596C40.7099981 24.8570404 41.9366135 24.2486365 42.8578827 23.1361173M20.3355962 24.8320308L8.72688462 16.7518C7.58951923 16.0221077 5.86728846 15.8900308 4.62955769 16.4811077 3.67461538 16.8564154 2.77590385 17.7923962 2.35253846 18.7283769 1.70719231 20.0968769 1.96284615 21.9740692 2.88640385 23.1362808 3.80767308 24.2488 5.03428846 24.8568769 6.47569231 24.8222231L20.3355962 24.8320308z"/>
    </g>
  </g>
</svg>
