<svg xmlns="http://www.w3.org/2000/svg" width="166" height="33" viewBox="0 0 166 33" xmlns:xlink="http://www.w3.org/1999/xlink">
  <defs>
    <polygon id="a" points="0 .072 7.42 .072 7.42 5.077 0 5.077"/>
    <polygon id="c" points=".195 .072 7.615 .072 7.615 5.077 .195 5.077"/>
    <polygon id="e" points=".159 .032 5.809 .032 5.809 12.662 .159 12.662"/>
  </defs>
  <g fill="none" fill-rule="evenodd">
    <g fill-rule="nonzero" transform="translate(35.016)">
      <path fill="#68EBCA" d="M105.760156,4.52941176 C105.695312,2.2 107.575781,0.323529412 109.910156,0.258823529 C109.975,0.258823529 110.039844,0.258823529 110.104687,0.258823529 C112.374219,0.194117647 114.319531,1.94117647 114.384375,4.20588235 C114.384375,4.27058824 114.384375,4.4 114.384375,4.46470588 C114.514062,6.72941176 112.698437,8.67058824 110.428906,8.8 C110.299219,8.8 110.234375,8.8 110.104687,8.8 C107.770312,8.86470588 105.825,7.05294118 105.760156,4.72352941 C105.760156,4.72352941 105.760156,4.59411765 105.760156,4.52941176 Z"/>
      <path fill="#FFFFFF" d="M33.9132812,19.9294118 L33.9132812,32.0941176 L26.3265625,32.0941176 L26.3265625,21.6764706 C26.3265625,19.4117647 25.8726562,17.6 23.7976562,17.6 C22.30625,17.6 21.0742187,18.8294118 21.0742187,21.6764706 L21.0742187,32.0941176 L13.5523437,32.0941176 L13.5523437,21.6764706 C13.5523437,19.4117647 13.0335937,17.6 11.0234375,17.6 C9.3375,17.6 8.1703125,18.8294118 8.1703125,21.6764706 L8.1703125,32.0941176 L0.51875,32.0941176 L0.51875,11.3235294 L8.10546875,11.3235294 L8.10546875,13.7176471 L8.1703125,13.7176471 C9.4671875,11.9705882 11.5421875,10.9352941 13.746875,10.9352941 C16.2757812,10.9352941 18.415625,11.7764706 19.7125,13.9117647 L19.7773437,13.9117647 C21.4632812,11.9705882 23.9273437,10.8705882 26.5210937,10.9352941 C30.8007812,10.8705882 33.9132812,13.2 33.9132812,19.9294118 Z"/>
      <polygon fill="#FFFFFF" points="65.427 26.788 65.427 32.029 57.841 32.029 57.841 .906 65.427 .906 65.427 16.953 65.492 16.953 70.291 11.324 78.98 11.324 72.041 19.218 79.239 32.029 70.874 32.029 67.048 24.976"/>
      <path fill="#FFFFFF" d="M98.4976562,23.5529412 L84.8804687,23.5529412 C85.2046875,25.5588235 86.9554687,26.5294118 89.1601562,26.5294118 C91.040625,26.5294118 92.5320312,25.7529412 93.9585937,24.2647059 L97.8492187,28.6 C96.0335937,30.7352941 92.7265625,32.5470588 88.3171875,32.5470588 C82.0921875,32.5470588 77.4234375,28.1470588 77.4234375,21.7411765 C77.4234375,15.4647059 81.8976562,10.9352941 88.1875,10.9352941 C94.153125,10.9352941 98.6273437,15.3352941 98.6273437,21.5470588 C98.6273437,22.1941176 98.5625,22.8411765 98.4976562,23.5529412 Z M84.8804687,19.4117647 L91.3,19.4117647 C90.9757812,17.6 89.74375,16.6294118 88.1875,16.6294118 C86.5015625,16.5647059 85.075,17.7941176 84.8804687,19.4117647 Z"/>
      <polygon fill="#FFFFFF" points="106.279 11.324 113.866 11.324 113.866 32.094 106.279 32.094"/>
      <path fill="#FFFFFF" d="M118.145313 25.5588235L118.145313 17.3411765 115.875781 17.3411765 115.875781 11.3235294 118.145313 11.3235294 118.145313 4.78823529 125.732031 4.01176471 125.732031 11.3235294 130.20625 11.3235294 130.20625 17.3411765 125.732031 17.3411765 125.732031 23.9411765C125.732031 24.9117647 125.861719 26.0117647 127.09375 26.0117647 127.6125 26.0117647 128.13125 25.8823529 128.65 25.6882353L130.530469 30.9294118C128.714844 32.0294118 126.575 32.5470588 124.435156 32.4823529 120.86875 32.4823529 118.145313 30.2823529 118.145313 25.5588235zM46.16875 10.8705882C44.2882812 10.8705882 42.3429687 11.1294118 40.5273437 11.6470588 39.4898437 11.9058824 38.4523437 12.2941176 37.4148437 12.7470588L37.4148437 18.7647059 40.5273437 17.4058824C41.8890625 16.8882353 43.315625 16.5647059 44.7421875 16.5647059 46.0390625 16.5647059 46.8171875 16.7588235 47.2710937 17.4705882 47.5953125 18.0529412 47.725 18.7 47.6601562 19.4117647L47.6601562 19.4764706 44.5476562 19.5411765C38.3226562 19.5411765 35.9234375 22.0647059 35.9234375 26.0117647 35.9234375 29.7 37.9984375 32.4823529 42.6023437 32.4823529 44.4828125 32.4176471 46.2984375 31.7705882 47.725 30.5411765L47.8546875 30.5411765 48.1140625 32.0941176 55.1171875 32.0941176 55.1171875 19.8C55.1171875 12.5529412 51.35625 10.8705882 46.16875 10.8705882zM47.725 25.5588235C47.725 25.8176471 46.946875 27.3705882 44.871875 27.3705882 43.8992187 27.3705882 43.1859375 26.7235294 43.1859375 25.4294118 43.1859375 24.0058824 44.1585937 23.3588235 45.4554687 23.3588235L47.725 23.2941176 47.725 25.5588235z"/>
    </g>
    <g transform="translate(0 10.353)">
      <g transform="translate(0 16.89)">
        <mask id="b" fill="white">
          <use xlink:href="#a"/>
        </mask>
        <path fill="#FFFFFF" d="M5.18474423,1.74445192 C5.076225,1.21433654 4.64193654,1.07450962 4.15645577,1.02945192 C2.58768654,0.883278846 2.30866731,2.05625962 2.30866731,2.55104808 C2.30866731,3.397625 2.55616731,4.09675962 4.09870577,4.09675962 C4.38153269,4.09675962 5.16549423,3.80589423 5.16549423,3.33035577 L7.38135962,3.33035577 C7.29293654,4.73941346 4.922225,5.07702885 3.88970577,5.07702885 C1.74809038,5.07702885 -0.0853134615,4.67849038 0.00310961538,2.57029808 C0.065725,1.06647115 1.48916731,0.00920192308 4.31955192,0.0749903846 C5.89741731,0.112009615 7.41182115,0.603625 7.41964808,1.74445192 L5.18474423,1.74445192 Z" mask="url(#b)"/>
      </g>
      <g transform="translate(22 16.89)">
        <mask id="d" fill="white">
          <use xlink:href="#c"/>
        </mask>
        <path fill="#FFFFFF" d="M5.382025,1.74445192 C5.27117885,1.21433654 4.83731346,1.07450962 4.35204423,1.02945192 C2.78390962,0.883278846 2.50594808,2.05625962 2.50594808,2.55104808 C2.50594808,3.397625 2.75175577,4.09675962 4.29260192,4.09675962 C4.57690962,4.09675962 5.36192885,3.80589423 5.36192885,3.33035577 L7.57842885,3.33035577 C7.488525,4.73941346 5.11844808,5.07702885 4.08529423,5.07702885 C1.94367885,5.07702885 0.109428846,4.67849038 0.197851923,2.57029808 C0.261313462,1.06647115 1.68475577,0.00920192308 4.51598654,0.0749903846 C6.09215962,0.112009615 7.60889038,0.603625 7.61544808,1.74445192 L5.382025,1.74445192 Z" mask="url(#d)"/>
      </g>
      <polygon fill="#FFFFFF" points="7.817 17.067 10.693 17.067 13.146 20.507 13.166 20.507 13.166 17.067 15.01 17.067 15.01 21.842 12.254 21.842 9.678 18.404 9.66 18.404 9.66 21.842 7.817 21.842"/>
      <path fill="#FFFFFF" d="M17.6016712,20.8430962 L18.1800173,20.8430962 C19.2565365,20.8430962 19.6519019,20.7290769 19.6519019,20.3578269 C19.6519019,19.9609808 19.1539404,19.8291923 18.3505173,19.8291923 L17.6016712,19.8291923 L17.6016712,20.8430962 Z M17.6016712,18.9214808 L18.1800173,18.9214808 C19.0735558,18.9214808 19.5459212,18.8523077 19.5459212,18.4812692 C19.5459212,18.0875962 19.1539404,17.9526346 18.3505173,17.9526346 L17.6016712,17.9526346 L17.6016712,18.9214808 Z M15.579575,17.0671346 L19.0735558,17.0671346 C20.7527481,17.0671346 21.7406327,17.5363269 21.7406327,18.2432885 C21.7406327,18.6627692 21.3268635,19.1785 20.4039212,19.3312308 L20.4039212,19.3456154 C21.5149212,19.4099231 21.9240365,20.1105385 21.9240365,20.5312885 C21.9240365,21.3734231 20.9630173,21.8426154 19.0832865,21.8426154 L15.579575,21.8426154 L15.579575,17.0671346 Z"/>
      <g transform="translate(15.02 .18)">
        <mask id="f" fill="white">
          <use xlink:href="#e"/>
        </mask>
        <path fill="#FFFFFF" d="M5.57994038,1.72812115 C5.41747885,1.33465962 5.13169038,0.982659615 4.79174808,0.679101923 C3.955325,-0.0358980769 2.59767115,-0.187148077 1.63220962,0.370467308 C0.709901923,0.862082692 0.165190385,1.79560192 0.158844231,2.80781346 L0.195651923,2.84483269 L1.40226731,2.85625577 C1.48201731,2.91083269 1.60809423,2.90448654 1.63220962,3.01998654 C1.142075,3.39610192 0.304171154,3.73033269 0.406978846,4.51112115 L1.69947885,12.6621212 L1.73099808,12.6253135 L5.30197885,4.59150577 C5.76228654,3.79125577 6.02353654,2.61996731 5.57994038,1.72812115" mask="url(#f)"/>
      </g>
      <path fill="#FFFFFF" d="M12.9228423 12.793275L14.3778038 3.459775C14.4814577 2.78179423 14.3118038 2.16790962 14.0203038 1.62975577 13.7053231 1.10746731 13.1969962.683332692 12.6618038.453390385 11.6544577.0275634615 10.3884.239736538 9.61861154 1.02221731 8.85305385 1.77423654 8.53891923 2.87169808 8.87716923 3.92092885L12.5293808 12.0702365 12.9035923 12.8222558C12.9173423 12.8173904 12.9285538 12.8046981 12.9228423 12.793275M25.8820481 5.55819423C26.3728173 6.39525192 26.2647212 7.66130962 25.7174712 8.438925 25.3792212 8.98532885 24.8207596 9.25673269 24.3469135 9.61507885L16.784625 14.8066558 16.7670673 14.8066558 16.8521058 14.5574635 20.8603365 5.50975192C21.4613173 4.443175 22.6076442 3.90332885 23.8199712 4.06705962 24.6504712 4.21809808 25.4811827 4.75794423 25.8820481 5.55819423M4.39746154 9.00933846L12.8080192 14.80655 12.8738077 14.80655 8.70290385 5.50985769C7.99826923 4.25987692 6.50734615 3.74562692 5.18565385 4.23089615 4.37821154 4.53466538 3.69938462 5.29789615 3.48171154 6.11549231 3.19 7.2083 3.54263462 8.2863 4.39746154 9.00933846M27.7315712 14.9704288C28.3314942 14.2184096 28.4945904 13.0037558 28.0761673 12.1184673 27.8030712 11.5126212 27.2213404 10.9069865 26.6036481 10.6643519 25.8025519 10.2818904 24.6881673 10.3671404 23.9524365 10.8395058L16.4409173 16.0676788 25.4090904 16.0613327C26.3417635 16.0839673 27.1354558 15.6902942 27.7315712 14.9704288M13.1583269 16.0677846L5.64680769 10.8394C4.91086538 10.3672462 3.79648077 10.2817846 2.99559615 10.6642462 2.37769231 10.9070923 1.79617308 11.5127269 1.52223077 12.1183615 1.10465385 13.0038615 1.27007692 14.2185154 1.86767308 14.9705346 2.46378846 15.6904 3.25748077 16.0838615 4.19015385 16.0614385L13.1583269 16.0677846z"/>
    </g>
  </g>
</svg>
