<svg xmlns="http://www.w3.org/2000/svg" viewBox="0 0 49.75 5"><title>makeItSquiggle</title><path d="M37.27,6.45a10.53,10.53,0,0,1-6.49-2.08,9.56,9.56,0,0,0-6-1.92,9.56,9.56,0,0,0-5.95,1.92A10.52,10.52,0,0,1,12.4,6.45,10.53,10.53,0,0,1,5.91,4.37,9.56,9.56,0,0,0,0,2.45v-1A10.53,10.53,0,0,1,6.45,3.53,9.56,9.56,0,0,0,12.4,5.45a9.55,9.55,0,0,0,5.95-1.92,10.52,10.52,0,0,1,6.49-2.08,10.53,10.53,0,0,1,6.49,2.08,9.56,9.56,0,0,0,5.95,1.92,9.56,9.56,0,0,0,6-1.92,10.53,10.53,0,0,1,6.49-2.08v1a9.56,9.56,0,0,0-6,1.92A10.53,10.53,0,0,1,37.27,6.45Z" transform="translate(0.04 -1.45)" fill="#68ebca"/></svg>