<?xml version="1.0" encoding="UTF-8"?>
<svg width="50px" height="42px" viewBox="0 0 50 42" version="1.1" xmlns="http://www.w3.org/2000/svg" xmlns:xlink="http://www.w3.org/1999/xlink">
    <!-- Generator: Sketch 48.2 (47327) - http://www.bohemiancoding.com/sketch -->
    <title>“</title>
    <desc>Created with Sketch.</desc>
    <defs></defs>
    <g id="360---Article-Toolkit" stroke="none" stroke-width="1" fill="none" fill-rule="evenodd" transform="translate(-23.000000, -1524.000000)">
        <g id="Pull-Quote" transform="translate(23.000000, 1524.000000)" fill="#68EBCA">
            <path d="M46.1577228,0 L47.6167313,2.39980656 C38.3321319,7.59938743 32.6287351,15.8653878 32.6287351,23.0648075 C32.6287351,24.2647108 33.0266465,24.7980011 33.9551065,24.7980011 C35.8120263,24.7980011 36.6078492,21.9982268 41.382786,21.9982268 C46.1577228,21.9982268 50.0041997,25.7312592 50.0041997,31.3308078 C50.0041997,36.9303565 45.4945372,41.3300018 39.2605918,41.3300018 C31.7002752,41.3300018 27.3232497,35.463808 27.3232497,26.6645173 C27.3232497,15.46542 36.2099377,5.06625829 46.1577228,0 Z M18.8344731,0 L20.2934816,2.39980656 C11.0088822,7.59938743 5.30548538,15.8653878 5.30548538,23.0648075 C5.30548538,24.2647108 5.70339679,24.7980011 6.63185673,24.7980011 C8.48877661,24.7980011 9.28459942,21.9982268 14.0595363,21.9982268 C18.8344731,21.9982268 22.68095,25.7312592 22.68095,31.3308078 C22.68095,36.9303565 18.1712874,41.3300018 11.9373421,41.3300018 C4.37702544,41.3300018 0,35.463808 0,26.6645173 C0,15.46542 8.88668802,5.06625829 18.8344731,0 Z" id="“"></path>
        </g>
    </g>
</svg>